  0
SECTION
  2
HEADER
  9
$ACADVER
  1
AC1014
  9
$HANDSEED
  5
FFFF
  9
$MEASUREMENT
 70
     1
  0
ENDSEC
  0
SECTION
  2
TABLES
  0
TABLE
  2
VPORT
  5
8
330
0
100
AcDbSymbolTable
 70
     4
  0
VPORT
  5
2E
330
8
100
AcDbSymbolTableRecord
100
AcDbViewportTableRecord
  2
*ACTIVE
 70
     0
 10
0.0
 20
0.0
 11
1.0
 21
1.0
 12
210.0
 22
148.5
 13
0.0
 23
0.0
 14
10.0
 24
10.0
 15
10.0
 25
10.0
 16
0.0
 26
0.0
 36
1.0
 17
0.0
 27
0.0
 37
0.0
 40
341.0
 41
1.24
 42
50.0
 43
0.0
 44
0.0
 50
0.0
 51
0.0
 71
     0
 72
   100
 73
     1
 74
     3
 75
     0
 76
     0
 77
     0
 78
     0
  0
ENDTAB
  0
TABLE
  2
LTYPE
  5
5
330
0
100
AcDbSymbolTable
 70
     1
  0
LTYPE
  5
14
330
5
100
AcDbSymbolTableRecord
100
AcDbLinetypeTableRecord
  2
BYBLOCK
 70
     0
  3

 72
    65
 73
     0
 40
0.0
  0
LTYPE
  5
15
330
5
100
AcDbSymbolTableRecord
100
AcDbLinetypeTableRecord
  2
BYLAYER
 70
     0
  3

 72
    65
 73
     0
 40
0.0
  0
LTYPE
  5
16
330
5
100
AcDbSymbolTableRecord
100
AcDbLinetypeTableRecord
  2
CONTINUOUS
 70
     0
  3
Solid line
 72
    65
 73
     0
 40
0.0
  0
ENDTAB
  0
TABLE
  2
LAYER
  5
2
100
AcDbSymbolTable
 70
1
  0
LAYER
  5
50
100
AcDbSymbolTableRecord
100
AcDbLayerTableRecord
  2
0
 70
0
  6
CONTINUOUS
  0
ENDTAB
  0
TABLE
  2
STYLE
  5
3
330
0
100
AcDbSymbolTable
 70
     1
  0
STYLE
  5
11
330
3
100
AcDbSymbolTableRecord
100
AcDbTextStyleTableRecord
  2
STANDARD
 70
     0
 40
0.0
 41
1.0
 50
0.0
 71
     0
 42
2.5
  3
txt
  4

  0
ENDTAB
  0
TABLE
  2
VIEW
  5
6
330
0
100
AcDbSymbolTable
 70
     0
  0
ENDTAB
  0
TABLE
  2
UCS
  5
7
330
0
100
AcDbSymbolTable
 70
     0
  0
ENDTAB
  0
TABLE
  2
APPID
  5
9
330
0
100
AcDbSymbolTable
 70
     2
  0
APPID
  5
12
330
9
100
AcDbSymbolTableRecord
100
AcDbRegAppTableRecord
  2
ACAD
 70
     0
  0
ENDTAB
  0
TABLE
  2
DIMSTYLE
  5
A
330
0
100
AcDbSymbolTable
 70
     1
  0
DIMSTYLE
105
27
330
A
100
AcDbSymbolTableRecord
100
AcDbDimStyleTableRecord
  2
ISO-25
 70
     0
  3

  4

  5

  6

  7

 40
1.0
 41
2.5
 42
0.625
 43
3.75
 44
1.25
 45
0.0
 46
0.0
 47
0.0
 48
0.0
140
2.5
141
2.5
142
0.0
143
0.03937007874016
144
1.0
145
0.0
146
1.0
147
0.625
 71
     0
 72
     0
 73
     0
 74
     0
 75
     0
 76
     0
 77
     1
 78
     8
170
     0
171
     3
172
     1
173
     0
174
     0
175
     0
176
     0
177
     0
178
     0
270
     2
271
     2
272
     2
273
     2
274
     3
340
11
275
     0
280
     0
281
     0
282
     0
283
     0
284
     8
285
     0
286
     0
287
     3
288
     0
  0
ENDTAB
  0
TABLE
  2
BLOCK_RECORD
  5
1
330
0
100
AcDbSymbolTable
 70
     1
  0
BLOCK_RECORD
  5
1F
330
1
100
AcDbSymbolTableRecord
100
AcDbBlockTableRecord
  2
*MODEL_SPACE
  0
BLOCK_RECORD
  5
1B
330
1
100
AcDbSymbolTableRecord
100
AcDbBlockTableRecord
  2
*PAPER_SPACE
  0
ENDTAB
  0
ENDSEC
  0
SECTION
  2
BLOCKS
  0
BLOCK
  5
20
330
1F
100
AcDbEntity
  8
0
100
AcDbBlockBegin
  2
*MODEL_SPACE
 70
     0
 10
0.0
 20
0.0
 30
0.0
  3
*MODEL_SPACE
  1

  0
ENDBLK
  5
21
330
1F
100
AcDbEntity
  8
0
100
AcDbBlockEnd
  0
BLOCK
  5
1C
330
1B
100
AcDbEntity
 67
     1
  8
0
100
AcDbBlockBegin
  2
*PAPER_SPACE
  1

  0
ENDBLK
  5
1D
330
1B
100
AcDbEntity
 67
     1
  8
0
100
AcDbBlockEnd
  0
ENDSEC
  0
SECTION
  2
ENTITIES
  0
SPLINE
  5
100
100
AcDbEntity
  8
0
 62
7
100
AcDbSpline
 70
8
 71
3
 72
8
 73
4
 74
0
 40
0
 40
0
 40
0
 40
0
 40
1
 40
1
 40
1
 40
1
 10
288.066333
 20
10.291115
 30
0.0
 10
288.066934
 20
12.077843
 30
0.0
 10
287.114070
 20
13.729105
 30
0.0
 10
285.566818
 20
14.622642
 30
0.0
  0
SPLINE
  5
101
100
AcDbEntity
  8
0
 62
7
100
AcDbSpline
 70
8
 71
3
 72
8
 73
4
 74
0
 40
0
 40
0
 40
0
 40
0
 40
1
 40
1
 40
1
 40
1
 10
285.566818
 20
14.622642
 30
0.0
 10
284.019566
 20
15.516179
 30
0.0
 10
282.113100
 20
15.516179
 30
0.0
 10
280.565848
 20
14.622642
 30
0.0
  0
SPLINE
  5
102
100
AcDbEntity
  8
0
 62
7
100
AcDbSpline
 70
8
 71
3
 72
8
 73
4
 74
0
 40
0
 40
0
 40
0
 40
0
 40
1
 40
1
 40
1
 40
1
 10
280.565848
 20
14.622642
 30
0.0
 10
279.018596
 20
13.729105
 30
0.0
 10
278.065733
 20
12.077843
 30
0.0
 10
278.066333
 20
10.291115
 30
0.0
  0
SPLINE
  5
103
100
AcDbEntity
  8
0
 62
7
100
AcDbSpline
 70
8
 71
3
 72
8
 73
4
 74
0
 40
0
 40
0
 40
0
 40
0
 40
1
 40
1
 40
1
 40
1
 10
278.066333
 20
10.291115
 30
0.0
 10
278.067261
 20
7.530347
 30
0.0
 10
280.305566
 20
5.292795
 30
0.0
 10
283.066333
 20
5.292795
 30
0.0
  0
SPLINE
  5
104
100
AcDbEntity
  8
0
 62
7
100
AcDbSpline
 70
8
 71
3
 72
8
 73
4
 74
0
 40
0
 40
0
 40
0
 40
0
 40
1
 40
1
 40
1
 40
1
 10
283.066333
 20
5.292795
 30
0.0
 10
285.827101
 20
5.292795
 30
0.0
 10
288.065406
 20
7.530347
 30
0.0
 10
288.066333
 20
10.291115
 30
0.0
  0
LWPOLYLINE
  5
105
100
AcDbEntity
  8
0
 62
7
100
AcDbPolyline
 90
6
 70
1
 10
222.222526
 20
165.528718
 30
0.0
 10
224.222527
 20
165.528718
 30
0.0
 10
224.222527
 20
185.528735
 30
0.0
 10
222.222526
 20
185.528735
 30
0.0
 10
222.222526
 20
165.528718
 30
0.0
 10
222.222526
 20
165.528718
 30
0.0
  0
SPLINE
  5
106
100
AcDbEntity
  8
0
 62
7
100
AcDbSpline
 70
8
 71
3
 72
8
 73
4
 74
0
 40
0
 40
0
 40
0
 40
0
 40
1
 40
1
 40
1
 40
1
 10
268.816334
 20
10.291115
 30
0.0
 10
268.816334
 20
12.077443
 30
0.0
 10
267.863339
 20
13.728079
 30
0.0
 10
266.316333
 20
14.621243
 30
0.0
  0
SPLINE
  5
107
100
AcDbEntity
  8
0
 62
7
100
AcDbSpline
 70
8
 71
3
 72
8
 73
4
 74
0
 40
0
 40
0
 40
0
 40
0
 40
1
 40
1
 40
1
 40
1
 10
266.316333
 20
14.621243
 30
0.0
 10
264.769327
 20
15.514407
 30
0.0
 10
262.863337
 20
15.514407
 30
0.0
 10
261.316332
 20
14.621243
 30
0.0
  0
SPLINE
  5
108
100
AcDbEntity
  8
0
 62
7
100
AcDbSpline
 70
8
 71
3
 72
8
 73
4
 74
0
 40
0
 40
0
 40
0
 40
0
 40
1
 40
1
 40
1
 40
1
 10
261.316332
 20
14.621243
 30
0.0
 10
259.769326
 20
13.728079
 30
0.0
 10
258.816331
 20
12.077443
 30
0.0
 10
258.816331
 20
10.291115
 30
0.0
  0
SPLINE
  5
109
100
AcDbEntity
  8
0
 62
7
100
AcDbSpline
 70
8
 71
3
 72
8
 73
4
 74
0
 40
0
 40
0
 40
0
 40
0
 40
1
 40
1
 40
1
 40
1
 10
258.816331
 20
10.291115
 30
0.0
 10
258.816331
 20
8.504786
 30
0.0
 10
259.769326
 20
6.854151
 30
0.0
 10
261.316332
 20
5.960987
 30
0.0
  0
SPLINE
  5
10a
100
AcDbEntity
  8
0
 62
7
100
AcDbSpline
 70
8
 71
3
 72
8
 73
4
 74
0
 40
0
 40
0
 40
0
 40
0
 40
1
 40
1
 40
1
 40
1
 10
261.316332
 20
5.960987
 30
0.0
 10
262.863337
 20
5.067823
 30
0.0
 10
264.769327
 20
5.067823
 30
0.0
 10
266.316333
 20
5.960987
 30
0.0
  0
SPLINE
  5
10b
100
AcDbEntity
  8
0
 62
7
100
AcDbSpline
 70
8
 71
3
 72
8
 73
4
 74
0
 40
0
 40
0
 40
0
 40
0
 40
1
 40
1
 40
1
 40
1
 10
266.316333
 20
5.960987
 30
0.0
 10
267.863339
 20
6.854151
 30
0.0
 10
268.816334
 20
8.504786
 30
0.0
 10
268.816334
 20
10.291115
 30
0.0
  0
LWPOLYLINE
  5
10c
100
AcDbEntity
  8
0
 62
7
100
AcDbPolyline
 90
2
 70
1
 10
288.066333
 20
10.291115
 30
0.0
 10
288.066333
 20
10.291115
 30
0.0
  0
LWPOLYLINE
  5
10d
100
AcDbEntity
  8
0
 62
7
100
AcDbPolyline
 90
2
 70
1
 10
268.816334
 20
10.291115
 30
0.0
 10
268.816334
 20
10.291115
 30
0.0
  0
LWPOLYLINE
  5
10e
100
AcDbEntity
  8
0
 62
7
100
AcDbPolyline
 90
6
 70
1
 10
268.316332
 20
46.278738
 30
0.0
 10
268.316332
 20
55.278720
 30
0.0
 10
259.316333
 20
55.278720
 30
0.0
 10
259.316333
 20
46.278738
 30
0.0
 10
268.316332
 20
46.278738
 30
0.0
 10
268.316332
 20
46.278738
 30
0.0
  0
LWPOLYLINE
  5
10f
100
AcDbEntity
  8
0
 62
7
100
AcDbPolyline
 90
6
 70
1
 10
287.566331
 20
46.278738
 30
0.0
 10
287.566331
 20
55.278720
 30
0.0
 10
278.566332
 20
55.278720
 30
0.0
 10
278.566332
 20
46.278738
 30
0.0
 10
287.566331
 20
46.278738
 30
0.0
 10
287.566331
 20
46.278738
 30
0.0
  0
LWPOLYLINE
  5
110
100
AcDbEntity
  8
0
 62
7
100
AcDbPolyline
 90
6
 70
1
 10
216.722528
 20
155.428719
 30
0.0
 10
196.722526
 20
155.428719
 30
0.0
 10
196.722526
 20
153.128720
 30
0.0
 10
216.722528
 20
153.128720
 30
0.0
 10
216.722528
 20
155.428719
 30
0.0
 10
216.722528
 20
155.428719
 30
0.0
  0
LWPOLYLINE
  5
111
100
AcDbEntity
  8
0
 62
7
100
AcDbPolyline
 90
6
 70
1
 10
213.722526
 20
38.528718
 30
0.0
 10
213.722526
 20
46.528730
 30
0.0
 10
195.722528
 20
46.528730
 30
0.0
 10
195.722528
 20
38.528718
 30
0.0
 10
213.722526
 20
38.528718
 30
0.0
 10
213.722526
 20
38.528718
 30
0.0
  0
LWPOLYLINE
  5
112
100
AcDbEntity
  8
0
 62
7
100
AcDbPolyline
 90
6
 70
1
 10
219.422528
 20
45.028719
 30
0.0
 10
221.722527
 20
45.028719
 30
0.0
 10
221.722527
 20
60.028718
 30
0.0
 10
219.422528
 20
60.028718
 30
0.0
 10
219.422528
 20
45.028719
 30
0.0
 10
219.422528
 20
45.028719
 30
0.0
  0
LWPOLYLINE
  5
113
100
AcDbEntity
  8
0
 62
7
100
AcDbPolyline
 90
6
 70
1
 10
181.528723
 20
153.128720
 30
0.0
 10
181.528723
 20
155.428719
 30
0.0
 10
144.528721
 20
155.428719
 30
0.0
 10
144.528721
 20
153.128720
 30
0.0
 10
181.528723
 20
153.128720
 30
0.0
 10
181.528723
 20
153.128720
 30
0.0
  0
LWPOLYLINE
  5
114
100
AcDbEntity
  8
0
 62
7
100
AcDbPolyline
 90
6
 70
1
 10
82.541111
 20
143.528734
 30
0.0
 10
82.541111
 20
183.528739
 30
0.0
 10
80.041111
 20
183.528739
 30
0.0
 10
80.041111
 20
143.528734
 30
0.0
 10
82.541111
 20
143.528734
 30
0.0
 10
82.541111
 20
143.528734
 30
0.0
  0
LWPOLYLINE
  5
115
100
AcDbEntity
  8
0
 62
7
100
AcDbPolyline
 90
6
 70
1
 10
84.534917
 20
45.028719
 30
0.0
 10
86.834916
 20
45.028719
 30
0.0
 10
86.834916
 20
60.028718
 30
0.0
 10
84.534917
 20
60.028718
 30
0.0
 10
84.534917
 20
45.028719
 30
0.0
 10
84.534917
 20
45.028719
 30
0.0
  0
LWPOLYLINE
  5
116
100
AcDbEntity
  8
0
 62
7
100
AcDbPolyline
 90
6
 70
1
 10
92.534916
 20
46.528730
 30
0.0
 10
92.534916
 20
38.528718
 30
0.0
 10
110.534917
 20
38.528718
 30
0.0
 10
110.534917
 20
46.528730
 30
0.0
 10
92.534916
 20
46.528730
 30
0.0
 10
92.534916
 20
46.528730
 30
0.0
  0
LWPOLYLINE
  5
117
100
AcDbEntity
  8
0
 62
7
100
AcDbPolyline
 90
6
 70
1
 10
95.534917
 20
120.028739
 30
0.0
 10
105.534916
 20
120.028739
 30
0.0
 10
105.534916
 20
133.528726
 30
0.0
 10
95.534917
 20
133.528726
 30
0.0
 10
95.534917
 20
120.028739
 30
0.0
 10
95.534917
 20
120.028739
 30
0.0
  0
LWPOLYLINE
  5
118
100
AcDbEntity
  8
0
 62
7
100
AcDbPolyline
 90
6
 70
1
 10
82.541111
 20
73.528733
 30
0.0
 10
82.541111
 20
103.528729
 30
0.0
 10
80.041111
 20
103.528729
 30
0.0
 10
80.041111
 20
73.528733
 30
0.0
 10
82.541111
 20
73.528733
 30
0.0
 10
82.541111
 20
73.528733
 30
0.0
  0
LWPOLYLINE
  5
119
100
AcDbEntity
  8
0
 62
7
100
AcDbPolyline
 90
3
 70
0
 10
6.141110
 20
166.028731
 30
0.0
 10
6.141110
 20
147.634926
 30
0.0
 10
3.641113
 20
147.634926
 30
0.0
  0
LWPOLYLINE
  5
11a
100
AcDbEntity
  8
0
 62
7
100
AcDbPolyline
 90
2
 70
0
 10
0.141111
 20
183.428719
 30
0.0
 10
0.141111
 20
167.628734
 30
0.0
  0
LWPOLYLINE
  5
11b
100
AcDbEntity
  8
0
 62
7
100
AcDbPolyline
 90
16
 70
0
 10
3.641113
 20
128.634936
 30
0.0
 10
6.141110
 20
128.634936
 30
0.0
 10
6.141110
 20
124.134931
 30
0.0
 10
16.041110
 20
124.134931
 30
0.0
 10
16.041110
 20
122.534928
 30
0.0
 10
52.541111
 20
122.534928
 30
0.0
 10
52.541111
 20
155.228736
 30
0.0
 10
52.841110
 20
155.228736
 30
0.0
 10
52.841110
 20
69.528741
 30
0.0
 10
83.734916
 20
69.528741
 30
0.0
 10
83.734916
 20
69.428721
 30
0.0
 10
80.434917
 20
69.428721
 30
0.0
 10
80.434917
 20
33.528728
 30
0.0
 10
226.316331
 20
33.528728
 30
0.0
 10
226.316331
 20
15.541126
 30
0.0
 10
223.316332
 20
15.541126
 30
0.0
  0
LWPOLYLINE
  5
11c
100
AcDbEntity
  8
0
 62
7
100
AcDbPolyline
 90
2
 70
0
 10
219.816333
 20
13.941123
 30
0.0
 10
219.816333
 20
3.141128
 30
0.0
  0
LWPOLYLINE
  5
11d
100
AcDbEntity
  8
0
 62
7
100
AcDbPolyline
 90
2
 70
0
 10
223.316332
 20
1.541125
 30
0.0
 10
304.316333
 20
1.541125
 30
0.0
  0
LWPOLYLINE
  5
11e
100
AcDbEntity
  8
0
 62
7
100
AcDbPolyline
 90
2
 70
0
 10
307.816332
 20
3.141128
 30
0.0
 10
307.816332
 20
13.941123
 30
0.0
  0
LWPOLYLINE
  5
11f
100
AcDbEntity
  8
0
 62
7
100
AcDbPolyline
 90
5
 70
0
 10
304.316333
 20
15.541126
 30
0.0
 10
301.316334
 20
15.541126
 30
0.0
 10
301.316334
 20
33.528728
 30
0.0
 10
302.216332
 20
33.528728
 30
0.0
 10
302.216332
 20
73.828735
 30
0.0
  0
LWPOLYLINE
  5
120
100
AcDbEntity
  8
0
 62
7
100
AcDbPolyline
 90
2
 70
0
 10
299.916334
 20
74.128737
 30
0.0
 10
303.110138
 20
74.128737
 30
0.0
  0
LWPOLYLINE
  5
121
100
AcDbEntity
  8
0
 62
7
100
AcDbPolyline
 90
2
 70
0
 10
307.610137
 20
76.728738
 30
0.0
 10
307.610137
 20
100.328724
 30
0.0
  0
LWPOLYLINE
  5
122
100
AcDbEntity
  8
0
 62
7
100
AcDbPolyline
 90
2
 70
0
 10
303.110138
 20
102.928725
 30
0.0
 10
299.916334
 20
102.928725
 30
0.0
  0
SPLINE
  5
123
100
AcDbEntity
  8
0
 62
7
100
AcDbSpline
 70
8
 71
3
 72
8
 73
4
 74
0
 40
0
 40
0
 40
0
 40
0
 40
1
 40
1
 40
1
 40
1
 10
307.610137
 20
180.328734
 30
0.0
 10
307.610133
 20
182.537870
 30
0.0
 10
305.819273
 20
184.328726
 30
0.0
 10
303.610137
 20
184.328726
 30
0.0
  0
LWPOLYLINE
  5
124
100
AcDbEntity
  8
0
 62
7
100
AcDbPolyline
 90
2
 70
0
 10
302.216332
 20
103.228727
 30
0.0
 10
302.216332
 20
143.828736
 30
0.0
  0
LWPOLYLINE
  5
125
100
AcDbEntity
  8
0
 62
7
100
AcDbPolyline
 90
4
 70
0
 10
303.610137
 20
184.328726
 30
0.0
 10
303.110138
 20
184.328726
 30
0.0
 10
303.110138
 20
182.928734
 30
0.0
 10
299.916334
 20
182.928734
 30
0.0
  0
SPLINE
  5
126
100
AcDbEntity
  8
0
 62
7
100
AcDbSpline
 70
8
 71
3
 72
8
 73
4
 74
0
 40
0
 40
0
 40
0
 40
0
 40
1
 40
1
 40
1
 40
1
 10
300.091176
 20
246.808690
 30
0.0
 10
299.579838
 20
249.092690
 30
0.0
 10
297.552499
 20
250.716338
 30
0.0
 10
295.211960
 20
250.716339
 30
0.0
  0
LWPOLYLINE
  5
127
100
AcDbEntity
  8
0
 62
7
100
AcDbPolyline
 90
3
 70
0
 10
302.216332
 20
229.016329
 30
0.0
 10
302.216332
 20
237.316343
 30
0.0
 10
300.091176
 20
246.808690
 30
0.0
  0
SPLINE
  5
128
100
AcDbEntity
  8
0
 62
7
100
AcDbSpline
 70
8
 71
3
 72
8
 73
4
 74
0
 40
0
 40
0
 40
0
 40
0
 40
1
 40
1
 40
1
 40
1
 10
232.420705
 20
250.716339
 30
0.0
 10
230.080166
 20
250.716338
 30
0.0
 10
228.052827
 20
249.092690
 30
0.0
 10
227.541489
 20
246.808690
 30
0.0
  0
LWPOLYLINE
  5
129
100
AcDbEntity
  8
0
 62
7
100
AcDbPolyline
 90
2
 70
0
 10
295.211960
 20
250.716339
 30
0.0
 10
232.420705
 20
250.716339
 30
0.0
  0
LWPOLYLINE
  5
12a
100
AcDbEntity
  8
0
 62
7
100
AcDbPolyline
 90
3
 70
0
 10
227.541489
 20
246.808690
 30
0.0
 10
225.416333
 20
237.316343
 30
0.0
 10
225.416333
 20
229.016329
 30
0.0
  0
LWPOLYLINE
  5
12b
100
AcDbEntity
  8
0
 62
7
100
AcDbPolyline
 90
16
 70
0
 10
225.416333
 20
193.528719
 30
0.0
 10
219.122526
 20
193.528719
 30
0.0
 10
219.122526
 20
198.122534
 30
0.0
 10
214.122528
 20
213.122533
 30
0.0
 10
200.122528
 20
213.122533
 30
0.0
 10
195.122526
 20
198.122534
 30
0.0
 10
195.122526
 20
193.528719
 30
0.0
 10
111.034916
 20
193.528719
 30
0.0
 10
111.034916
 20
198.122534
 30
0.0
 10
106.034916
 20
213.122533
 30
0.0
 10
92.034917
 20
213.122533
 30
0.0
 10
87.034916
 20
198.122534
 30
0.0
 10
87.034916
 20
193.528719
 30
0.0
 10
6.141110
 20
193.528719
 30
0.0
 10
6.141110
 20
185.028722
 30
0.0
 10
3.641113
 20
185.028722
 30
0.0
  0
LWPOLYLINE
  5
12c
100
AcDbEntity
  8
0
 62
7
100
AcDbPolyline
 90
2
 70
0
 10
3.641113
 20
166.028731
 30
0.0
 10
6.141110
 20
166.028731
 30
0.0
  0
SPLINE
  5
12d
100
AcDbEntity
  8
0
 62
7
100
AcDbSpline
 70
8
 71
3
 72
8
 73
4
 74
0
 40
0
 40
0
 40
0
 40
0
 40
1
 40
1
 40
1
 40
1
 10
0.141111
 20
130.234910
 30
0.0
 10
0.141114
 20
128.578058
 30
0.0
 10
1.484259
 20
127.234916
 30
0.0
 10
3.141111
 20
127.234916
 30
0.0
  0
LWPOLYLINE
  5
12e
100
AcDbEntity
  8
0
 62
7
100
AcDbPolyline
 90
2
 70
0
 10
52.541111
 20
154.531816
 30
0.0
 10
6.141110
 20
154.531816
 30
0.0
  0
LWPOLYLINE
  5
12f
100
AcDbEntity
  8
0
 62
7
100
AcDbPolyline
 90
3
 70
0
 10
3.141111
 20
127.234916
 30
0.0
 10
3.641113
 20
127.234916
 30
0.0
 10
3.641113
 20
128.634936
 30
0.0
  0
SPLINE
  5
130
100
AcDbEntity
  8
0
 62
7
100
AcDbSpline
 70
8
 71
3
 72
8
 73
4
 74
0
 40
0
 40
0
 40
0
 40
0
 40
1
 40
1
 40
1
 40
1
 10
222.816333
 20
16.941117
 30
0.0
 10
221.159481
 20
16.941117
 30
0.0
 10
219.816336
 20
15.597975
 30
0.0
 10
219.816333
 20
13.941123
 30
0.0
  0
SPLINE
  5
131
100
AcDbEntity
  8
0
 62
7
100
AcDbSpline
 70
8
 71
3
 72
8
 73
4
 74
0
 40
0
 40
0
 40
0
 40
0
 40
1
 40
1
 40
1
 40
1
 10
219.816333
 20
3.141128
 30
0.0
 10
219.816327
 20
2.345475
 30
0.0
 10
220.132395
 20
1.582407
 30
0.0
 10
220.695005
 20
1.019793
 30
0.0
  0
SPLINE
  5
132
100
AcDbEntity
  8
0
 62
7
100
AcDbSpline
 70
8
 71
3
 72
8
 73
4
 74
0
 40
0
 40
0
 40
0
 40
0
 40
1
 40
1
 40
1
 40
1
 10
220.695005
 20
1.019793
 30
0.0
 10
221.257614
 20
0.457179
 30
0.0
 10
222.020679
 20
0.141106
 30
0.0
 10
222.816333
 20
0.141106
 30
0.0
  0
LWPOLYLINE
  5
133
100
AcDbEntity
  8
0
 62
7
100
AcDbPolyline
 90
3
 70
0
 10
223.316332
 20
15.541126
 30
0.0
 10
223.316332
 20
16.941117
 30
0.0
 10
222.816333
 20
16.941117
 30
0.0
  0
LWPOLYLINE
  5
134
100
AcDbEntity
  8
0
 62
7
100
AcDbPolyline
 90
3
 70
0
 10
222.816333
 20
0.141106
 30
0.0
 10
223.316332
 20
0.141106
 30
0.0
 10
223.316332
 20
1.541125
 30
0.0
  0
SPLINE
  5
135
100
AcDbEntity
  8
0
 62
7
100
AcDbSpline
 70
8
 71
3
 72
8
 73
4
 74
0
 40
0
 40
0
 40
0
 40
0
 40
1
 40
1
 40
1
 40
1
 10
304.816332
 20
0.141106
 30
0.0
 10
305.611985
 20
0.141106
 30
0.0
 10
306.375050
 20
0.457179
 30
0.0
 10
306.937660
 20
1.019793
 30
0.0
  0
SPLINE
  5
136
100
AcDbEntity
  8
0
 62
7
100
AcDbSpline
 70
8
 71
3
 72
8
 73
4
 74
0
 40
0
 40
0
 40
0
 40
0
 40
1
 40
1
 40
1
 40
1
 10
306.937660
 20
1.019793
 30
0.0
 10
307.500270
 20
1.582407
 30
0.0
 10
307.816338
 20
2.345475
 30
0.0
 10
307.816332
 20
3.141128
 30
0.0
  0
SPLINE
  5
137
100
AcDbEntity
  8
0
 62
7
100
AcDbSpline
 70
8
 71
3
 72
8
 73
4
 74
0
 40
0
 40
0
 40
0
 40
0
 40
1
 40
1
 40
1
 40
1
 10
307.816332
 20
13.941123
 30
0.0
 10
307.816329
 20
15.597975
 30
0.0
 10
306.473184
 20
16.941117
 30
0.0
 10
304.816332
 20
16.941117
 30
0.0
  0
LWPOLYLINE
  5
138
100
AcDbEntity
  8
0
 62
7
100
AcDbPolyline
 90
3
 70
0
 10
304.316333
 20
1.541125
 30
0.0
 10
304.316333
 20
0.141106
 30
0.0
 10
304.816332
 20
0.141106
 30
0.0
  0
LWPOLYLINE
  5
139
100
AcDbEntity
  8
0
 62
7
100
AcDbPolyline
 90
3
 70
0
 10
304.816332
 20
16.941117
 30
0.0
 10
304.316333
 20
16.941117
 30
0.0
 10
304.316333
 20
15.541126
 30
0.0
  0
SPLINE
  5
13a
100
AcDbEntity
  8
0
 62
7
100
AcDbSpline
 70
8
 71
3
 72
8
 73
4
 74
0
 40
0
 40
0
 40
0
 40
0
 40
1
 40
1
 40
1
 40
1
 10
3.141111
 20
186.428741
 30
0.0
 10
2.345457
 20
186.428741
 30
0.0
 10
1.582392
 20
186.112668
 30
0.0
 10
1.019783
 20
185.550054
 30
0.0
  0
SPLINE
  5
13b
100
AcDbEntity
  8
0
 62
7
100
AcDbSpline
 70
8
 71
3
 72
8
 73
4
 74
0
 40
0
 40
0
 40
0
 40
0
 40
1
 40
1
 40
1
 40
1
 10
1.019783
 20
185.550054
 30
0.0
 10
0.457173
 20
184.987440
 30
0.0
 10
0.141105
 20
184.224372
 30
0.0
 10
0.141111
 20
183.428719
 30
0.0
  0
SPLINE
  5
13c
100
AcDbEntity
  8
0
 62
7
100
AcDbSpline
 70
8
 71
3
 72
8
 73
4
 74
0
 40
0
 40
0
 40
0
 40
0
 40
1
 40
1
 40
1
 40
1
 10
0.141111
 20
167.628734
 30
0.0
 10
0.141114
 20
165.971882
 30
0.0
 10
1.484259
 20
164.628740
 30
0.0
 10
3.141111
 20
164.628740
 30
0.0
  0
LWPOLYLINE
  5
13d
100
AcDbEntity
  8
0
 62
7
100
AcDbPolyline
 90
3
 70
0
 10
3.641113
 20
185.028722
 30
0.0
 10
3.641113
 20
186.428741
 30
0.0
 10
3.141111
 20
186.428741
 30
0.0
  0
LWPOLYLINE
  5
13e
100
AcDbEntity
  8
0
 62
7
100
AcDbPolyline
 90
3
 70
0
 10
3.141111
 20
164.628740
 30
0.0
 10
3.641113
 20
164.628740
 30
0.0
 10
3.641113
 20
166.028731
 30
0.0
  0
SPLINE
  5
13f
100
AcDbEntity
  8
0
 62
7
100
AcDbSpline
 70
8
 71
3
 72
8
 73
4
 74
0
 40
0
 40
0
 40
0
 40
0
 40
1
 40
1
 40
1
 40
1
 10
3.141111
 20
149.034918
 30
0.0
 10
1.484259
 20
149.034918
 30
0.0
 10
0.141114
 20
147.691776
 30
0.0
 10
0.141111
 20
146.034924
 30
0.0
  0
LWPOLYLINE
  5
140
100
AcDbEntity
  8
0
 62
7
100
AcDbPolyline
 90
3
 70
0
 10
3.641113
 20
147.634926
 30
0.0
 10
3.641113
 20
149.034918
 30
0.0
 10
3.141111
 20
149.034918
 30
0.0
  0
LWPOLYLINE
  5
141
100
AcDbEntity
  8
0
 62
7
100
AcDbPolyline
 90
2
 70
0
 10
0.141111
 20
146.034924
 30
0.0
 10
0.141111
 20
130.234910
 30
0.0
  0
LWPOLYLINE
  5
142
100
AcDbEntity
  8
0
 62
7
100
AcDbPolyline
 90
6
 70
1
 10
213.722526
 20
60.528731
 30
0.0
 10
213.722526
 20
68.528743
 30
0.0
 10
195.722528
 20
68.528743
 30
0.0
 10
195.722528
 20
60.528731
 30
0.0
 10
213.722526
 20
60.528731
 30
0.0
 10
213.722526
 20
60.528731
 30
0.0
  0
LWPOLYLINE
  5
143
100
AcDbEntity
  8
0
 62
7
100
AcDbPolyline
 90
6
 70
1
 10
92.534916
 20
68.528743
 30
0.0
 10
92.534916
 20
60.528731
 30
0.0
 10
110.534917
 20
60.528731
 30
0.0
 10
110.534917
 20
68.528743
 30
0.0
 10
92.534916
 20
68.528743
 30
0.0
 10
92.534916
 20
68.528743
 30
0.0
  0
LWPOLYLINE
  5
144
100
AcDbEntity
  8
0
 62
7
100
AcDbPolyline
 90
2
 70
0
 10
192.125625
 20
193.528719
 30
0.0
 10
192.125625
 20
33.528728
 30
0.0
  0
LWPOLYLINE
  5
145
100
AcDbEntity
  8
0
 62
7
100
AcDbPolyline
 90
2
 70
0
 10
224.819430
 20
193.528719
 30
0.0
 10
224.819430
 20
33.528728
 30
0.0
  0
LWPOLYLINE
  5
146
100
AcDbEntity
  8
0
 62
7
100
AcDbPolyline
 90
2
 70
0
 10
114.131819
 20
33.528728
 30
0.0
 10
114.131819
 20
193.528719
 30
0.0
  0
LWPOLYLINE
  5
147
100
AcDbEntity
  8
0
 62
7
100
AcDbPolyline
 90
2
 70
0
 10
83.138014
 20
69.528741
 30
0.0
 10
83.138014
 20
193.528719
 30
0.0
  0
LWPOLYLINE
  5
148
100
AcDbEntity
  8
0
 62
7
100
AcDbPolyline
 90
2
 70
0
 10
111.034916
 20
194.125619
 30
0.0
 10
87.034916
 20
194.125619
 30
0.0
  0
LWPOLYLINE
  5
149
100
AcDbEntity
  8
0
 62
7
100
AcDbPolyline
 90
2
 70
0
 10
195.122526
 20
194.125619
 30
0.0
 10
219.122526
 20
194.125619
 30
0.0
  0
LWPOLYLINE
  5
14a
100
AcDbEntity
  8
0
 62
7
100
AcDbPolyline
 90
2
 70
0
 10
302.216332
 20
226.719435
 30
0.0
 10
225.416333
 20
226.719435
 30
0.0
  0
LWPOLYLINE
  5
14b
100
AcDbEntity
  8
0
 62
7
100
AcDbPolyline
 90
2
 70
0
 10
302.216332
 20
195.725621
 30
0.0
 10
225.416333
 20
195.725621
 30
0.0
  0
LWPOLYLINE
  5
14c
100
AcDbEntity
  8
0
 62
7
100
AcDbPolyline
 90
2
 70
0
 10
301.316334
 20
28.538023
 30
0.0
 10
226.316331
 20
28.538023
 30
0.0
  0
LWPOLYLINE
  5
14d
100
AcDbEntity
  8
0
 62
7
100
AcDbPolyline
 90
2
 70
0
 10
226.316331
 20
32.531835
 30
0.0
 10
301.316334
 20
32.531835
 30
0.0
  0
LWPOLYLINE
  5
14e
100
AcDbEntity
  8
0
 62
7
100
AcDbPolyline
 90
8
 70
1
 10
166.728721
 20
46.028717
 30
0.0
 10
166.728721
 20
57.028724
 30
0.0
 10
161.728723
 20
64.528723
 30
0.0
 10
124.728722
 20
64.528723
 30
0.0
 10
124.728722
 20
38.528718
 30
0.0
 10
161.728723
 20
38.528718
 30
0.0
 10
166.728721
 20
46.028717
 30
0.0
 10
166.728721
 20
46.028717
 30
0.0
  0
SPLINE
  5
14f
100
AcDbEntity
  8
0
 62
7
100
AcDbSpline
 70
8
 71
3
 72
8
 73
4
 74
0
 40
0
 40
0
 40
0
 40
0
 40
1
 40
1
 40
1
 40
1
 10
303.610137
 20
72.728718
 30
0.0
 10
304.671007
 20
72.728717
 30
0.0
 10
305.688425
 20
73.150147
 30
0.0
 10
306.438572
 20
73.900297
 30
0.0
  0
SPLINE
  5
150
100
AcDbEntity
  8
0
 62
7
100
AcDbSpline
 70
8
 71
3
 72
8
 73
4
 74
0
 40
0
 40
0
 40
0
 40
0
 40
1
 40
1
 40
1
 40
1
 10
306.438572
 20
73.900297
 30
0.0
 10
307.188718
 20
74.650447
 30
0.0
 10
307.610143
 20
75.667868
 30
0.0
 10
307.610137
 20
76.728738
 30
0.0
  0
SPLINE
  5
151
100
AcDbEntity
  8
0
 62
7
100
AcDbSpline
 70
8
 71
3
 72
8
 73
4
 74
0
 40
0
 40
0
 40
0
 40
0
 40
1
 40
1
 40
1
 40
1
 10
307.610137
 20
100.328724
 30
0.0
 10
307.610133
 20
102.537861
 30
0.0
 10
305.819273
 20
104.328717
 30
0.0
 10
303.610137
 20
104.328716
 30
0.0
  0
LWPOLYLINE
  5
152
100
AcDbEntity
  8
0
 62
7
100
AcDbPolyline
 90
3
 70
0
 10
303.110138
 20
74.128737
 30
0.0
 10
303.110138
 20
72.728718
 30
0.0
 10
303.610137
 20
72.728718
 30
0.0
  0
LWPOLYLINE
  5
153
100
AcDbEntity
  8
0
 62
7
100
AcDbPolyline
 90
3
 70
0
 10
303.610137
 20
104.328716
 30
0.0
 10
303.110138
 20
104.328716
 30
0.0
 10
303.110138
 20
102.928725
 30
0.0
  0
SPLINE
  5
154
100
AcDbEntity
  8
0
 62
7
100
AcDbSpline
 70
8
 71
3
 72
8
 73
4
 74
0
 40
0
 40
0
 40
0
 40
0
 40
1
 40
1
 40
1
 40
1
 10
303.610137
 20
142.728719
 30
0.0
 10
304.671007
 20
142.728719
 30
0.0
 10
305.688425
 20
143.150149
 30
0.0
 10
306.438572
 20
143.900298
 30
0.0
  0
SPLINE
  5
155
100
AcDbEntity
  8
0
 62
7
100
AcDbSpline
 70
8
 71
3
 72
8
 73
4
 74
0
 40
0
 40
0
 40
0
 40
0
 40
1
 40
1
 40
1
 40
1
 10
306.438572
 20
143.900298
 30
0.0
 10
307.188718
 20
144.650448
 30
0.0
 10
307.610143
 20
145.667869
 30
0.0
 10
307.610137
 20
146.728739
 30
0.0
  0
LWPOLYLINE
  5
156
100
AcDbEntity
  8
0
 62
7
100
AcDbPolyline
 90
4
 70
0
 10
299.916334
 20
144.128738
 30
0.0
 10
303.110138
 20
144.128738
 30
0.0
 10
303.110138
 20
142.728719
 30
0.0
 10
303.610137
 20
142.728719
 30
0.0
  0
LWPOLYLINE
  5
157
100
AcDbEntity
  8
0
 62
7
100
AcDbPolyline
 90
2
 70
0
 10
307.610137
 20
146.728739
 30
0.0
 10
307.610137
 20
180.328734
 30
0.0
  0
LWPOLYLINE
  5
158
100
AcDbEntity
  8
0
 62
7
100
AcDbPolyline
 90
3
 70
0
 10
302.216332
 20
73.828735
 30
0.0
 10
299.916334
 20
73.828735
 30
0.0
 10
299.916334
 20
74.128737
 30
0.0
  0
LWPOLYLINE
  5
159
100
AcDbEntity
  8
0
 62
7
100
AcDbPolyline
 90
3
 70
0
 10
299.916334
 20
102.928725
 30
0.0
 10
299.916334
 20
103.228727
 30
0.0
 10
302.216332
 20
103.228727
 30
0.0
  0
LWPOLYLINE
  5
15a
100
AcDbEntity
  8
0
 62
7
100
AcDbPolyline
 90
3
 70
0
 10
302.216332
 20
143.828736
 30
0.0
 10
299.916334
 20
143.828736
 30
0.0
 10
299.916334
 20
144.128738
 30
0.0
  0
LWPOLYLINE
  5
15b
100
AcDbEntity
  8
0
 62
7
100
AcDbPolyline
 90
7
 70
0
 10
299.916334
 20
182.928734
 30
0.0
 10
299.916334
 20
183.228736
 30
0.0
 10
302.216332
 20
183.228736
 30
0.0
 10
302.216332
 20
228.816346
 30
0.0
 10
297.216333
 20
228.816346
 30
0.0
 10
297.216333
 20
229.016329
 30
0.0
 10
302.216332
 20
229.016329
 30
0.0
  0
LWPOLYLINE
  5
15c
100
AcDbEntity
  8
0
 62
7
100
AcDbPolyline
 90
5
 70
0
 10
225.416333
 20
229.016329
 30
0.0
 10
230.416331
 20
229.016329
 30
0.0
 10
230.416331
 20
228.816346
 30
0.0
 10
225.416333
 20
228.816346
 30
0.0
 10
225.416333
 20
193.528719
 30
0.0
  0
LWPOLYLINE
  5
15d
100
AcDbEntity
  8
0
 62
7
100
AcDbPolyline
 90
2
 70
0
 10
300.613236
 20
102.928725
 30
0.0
 10
300.613236
 20
74.128737
 30
0.0
  0
LWPOLYLINE
  5
15e
100
AcDbEntity
  8
0
 62
7
100
AcDbPolyline
 90
2
 70
0
 10
300.613236
 20
182.928734
 30
0.0
 10
300.613236
 20
144.128738
 30
0.0
  0
ENDSEC
  0
SECTION
  2
OBJECTS
  0
DICTIONARY
  5
C
330
0
100
AcDbDictionary
  3
ACAD_GROUP
350
D
  3
ACAD_MLINESTYLE
350
17
  0
DICTIONARY
  5
D
330
C
100
AcDbDictionary
  0
DICTIONARY
  5
1A
330
C
100
AcDbDictionary
  0
DICTIONARY
  5
17
330
C
100
AcDbDictionary
  3
STANDARD
350
18
  0
DICTIONARY
  5
19
330
C
100
AcDbDictionary
  0
ENDSEC
  0
EOF
