  0
SECTION
  2
HEADER
  9
$ACADVER
  1
AC1014
  9
$HANDSEED
  5
FFFF
  9
$MEASUREMENT
 70
     1
  0
ENDSEC
  0
SECTION
  2
TABLES
  0
TABLE
  2
VPORT
  5
8
330
0
100
AcDbSymbolTable
 70
     4
  0
VPORT
  5
2E
330
8
100
AcDbSymbolTableRecord
100
AcDbViewportTableRecord
  2
*ACTIVE
 70
     0
 10
0.0
 20
0.0
 11
1.0
 21
1.0
 12
210.0
 22
148.5
 13
0.0
 23
0.0
 14
10.0
 24
10.0
 15
10.0
 25
10.0
 16
0.0
 26
0.0
 36
1.0
 17
0.0
 27
0.0
 37
0.0
 40
341.0
 41
1.24
 42
50.0
 43
0.0
 44
0.0
 50
0.0
 51
0.0
 71
     0
 72
   100
 73
     1
 74
     3
 75
     0
 76
     0
 77
     0
 78
     0
  0
ENDTAB
  0
TABLE
  2
LTYPE
  5
5
330
0
100
AcDbSymbolTable
 70
     1
  0
LTYPE
  5
14
330
5
100
AcDbSymbolTableRecord
100
AcDbLinetypeTableRecord
  2
BYBLOCK
 70
     0
  3

 72
    65
 73
     0
 40
0.0
  0
LTYPE
  5
15
330
5
100
AcDbSymbolTableRecord
100
AcDbLinetypeTableRecord
  2
BYLAYER
 70
     0
  3

 72
    65
 73
     0
 40
0.0
  0
LTYPE
  5
16
330
5
100
AcDbSymbolTableRecord
100
AcDbLinetypeTableRecord
  2
CONTINUOUS
 70
     0
  3
Solid line
 72
    65
 73
     0
 40
0.0
  0
ENDTAB
  0
TABLE
  2
LAYER
  5
2
100
AcDbSymbolTable
 70
1
  0
LAYER
  5
50
100
AcDbSymbolTableRecord
100
AcDbLayerTableRecord
  2
0
 70
0
  6
CONTINUOUS
  0
ENDTAB
  0
TABLE
  2
STYLE
  5
3
330
0
100
AcDbSymbolTable
 70
     1
  0
STYLE
  5
11
330
3
100
AcDbSymbolTableRecord
100
AcDbTextStyleTableRecord
  2
STANDARD
 70
     0
 40
0.0
 41
1.0
 50
0.0
 71
     0
 42
2.5
  3
txt
  4

  0
ENDTAB
  0
TABLE
  2
VIEW
  5
6
330
0
100
AcDbSymbolTable
 70
     0
  0
ENDTAB
  0
TABLE
  2
UCS
  5
7
330
0
100
AcDbSymbolTable
 70
     0
  0
ENDTAB
  0
TABLE
  2
APPID
  5
9
330
0
100
AcDbSymbolTable
 70
     2
  0
APPID
  5
12
330
9
100
AcDbSymbolTableRecord
100
AcDbRegAppTableRecord
  2
ACAD
 70
     0
  0
ENDTAB
  0
TABLE
  2
DIMSTYLE
  5
A
330
0
100
AcDbSymbolTable
 70
     1
  0
DIMSTYLE
105
27
330
A
100
AcDbSymbolTableRecord
100
AcDbDimStyleTableRecord
  2
ISO-25
 70
     0
  3

  4

  5

  6

  7

 40
1.0
 41
2.5
 42
0.625
 43
3.75
 44
1.25
 45
0.0
 46
0.0
 47
0.0
 48
0.0
140
2.5
141
2.5
142
0.0
143
0.03937007874016
144
1.0
145
0.0
146
1.0
147
0.625
 71
     0
 72
     0
 73
     0
 74
     0
 75
     0
 76
     0
 77
     1
 78
     8
170
     0
171
     3
172
     1
173
     0
174
     0
175
     0
176
     0
177
     0
178
     0
270
     2
271
     2
272
     2
273
     2
274
     3
340
11
275
     0
280
     0
281
     0
282
     0
283
     0
284
     8
285
     0
286
     0
287
     3
288
     0
  0
ENDTAB
  0
TABLE
  2
BLOCK_RECORD
  5
1
330
0
100
AcDbSymbolTable
 70
     1
  0
BLOCK_RECORD
  5
1F
330
1
100
AcDbSymbolTableRecord
100
AcDbBlockTableRecord
  2
*MODEL_SPACE
  0
BLOCK_RECORD
  5
1B
330
1
100
AcDbSymbolTableRecord
100
AcDbBlockTableRecord
  2
*PAPER_SPACE
  0
ENDTAB
  0
ENDSEC
  0
SECTION
  2
BLOCKS
  0
BLOCK
  5
20
330
1F
100
AcDbEntity
  8
0
100
AcDbBlockBegin
  2
*MODEL_SPACE
 70
     0
 10
0.0
 20
0.0
 30
0.0
  3
*MODEL_SPACE
  1

  0
ENDBLK
  5
21
330
1F
100
AcDbEntity
  8
0
100
AcDbBlockEnd
  0
BLOCK
  5
1C
330
1B
100
AcDbEntity
 67
     1
  8
0
100
AcDbBlockBegin
  2
*PAPER_SPACE
  1

  0
ENDBLK
  5
1D
330
1B
100
AcDbEntity
 67
     1
  8
0
100
AcDbBlockEnd
  0
ENDSEC
  0
SECTION
  2
ENTITIES
  0
LWPOLYLINE
  5
100
100
AcDbEntity
  8
0
 62
7
100
AcDbPolyline
 90
6
 70
1
 10
92.742879
 20
81.342878
 30
0.0
 10
92.742879
 20
61.342879
 30
0.0
 10
94.542878
 20
61.342879
 30
0.0
 10
94.542878
 20
81.342878
 30
0.0
 10
92.742879
 20
81.342878
 30
0.0
 10
92.742879
 20
81.342878
 30
0.0
  0
LWPOLYLINE
  5
101
100
AcDbEntity
  8
0
 62
7
100
AcDbPolyline
 90
6
 70
1
 10
92.742879
 20
194.442878
 30
0.0
 10
92.742879
 20
186.342880
 30
0.0
 10
107.742880
 20
186.342880
 30
0.0
 10
107.742880
 20
194.442878
 30
0.0
 10
92.742879
 20
194.442878
 30
0.0
 10
92.742879
 20
194.442878
 30
0.0
  0
LWPOLYLINE
  5
102
100
AcDbEntity
  8
0
 62
7
100
AcDbPolyline
 90
6
 70
1
 10
92.742879
 20
211.342878
 30
0.0
 10
92.742879
 20
203.242877
 30
0.0
 10
107.742880
 20
203.242877
 30
0.0
 10
107.742880
 20
211.342878
 30
0.0
 10
92.742879
 20
211.342878
 30
0.0
 10
92.742879
 20
211.342878
 30
0.0
  0
LWPOLYLINE
  5
103
100
AcDbEntity
  8
0
 62
7
100
AcDbPolyline
 90
6
 70
1
 10
98.142879
 20
91.142878
 30
0.0
 10
108.142879
 20
91.142878
 30
0.0
 10
108.142879
 20
93.042877
 30
0.0
 10
98.142879
 20
93.042877
 30
0.0
 10
98.142879
 20
91.142878
 30
0.0
 10
98.142879
 20
91.142878
 30
0.0
  0
LWPOLYLINE
  5
104
100
AcDbEntity
  8
0
 62
7
100
AcDbPolyline
 90
6
 70
1
 10
127.293765
 20
91.142878
 30
0.0
 10
177.793763
 20
91.142878
 30
0.0
 10
177.793763
 20
93.042877
 30
0.0
 10
127.293765
 20
93.042877
 30
0.0
 10
127.293765
 20
91.142878
 30
0.0
 10
127.293765
 20
91.142878
 30
0.0
  0
SPLINE
  5
105
100
AcDbEntity
  8
0
 62
7
100
AcDbSpline
 70
8
 71
3
 72
8
 73
4
 74
0
 40
0
 40
0
 40
0
 40
0
 40
1
 40
1
 40
1
 40
1
 10
36.091995
 20
198.842877
 30
0.0
 10
36.091995
 20
199.557409
 30
0.0
 10
35.710797
 20
200.217663
 30
0.0
 10
35.091994
 20
200.574928
 30
0.0
  0
SPLINE
  5
106
100
AcDbEntity
  8
0
 62
7
100
AcDbSpline
 70
8
 71
3
 72
8
 73
4
 74
0
 40
0
 40
0
 40
0
 40
0
 40
1
 40
1
 40
1
 40
1
 10
35.091994
 20
200.574928
 30
0.0
 10
34.473192
 20
200.932194
 30
0.0
 10
33.710797
 20
200.932194
 30
0.0
 10
33.091994
 20
200.574928
 30
0.0
  0
SPLINE
  5
107
100
AcDbEntity
  8
0
 62
7
100
AcDbSpline
 70
8
 71
3
 72
8
 73
4
 74
0
 40
0
 40
0
 40
0
 40
0
 40
1
 40
1
 40
1
 40
1
 10
33.091994
 20
200.574928
 30
0.0
 10
32.473192
 20
200.217663
 30
0.0
 10
32.091994
 20
199.557409
 30
0.0
 10
32.091994
 20
198.842877
 30
0.0
  0
SPLINE
  5
108
100
AcDbEntity
  8
0
 62
7
100
AcDbSpline
 70
8
 71
3
 72
8
 73
4
 74
0
 40
0
 40
0
 40
0
 40
0
 40
1
 40
1
 40
1
 40
1
 10
32.091994
 20
198.842877
 30
0.0
 10
32.091994
 20
198.128346
 30
0.0
 10
32.473192
 20
197.468092
 30
0.0
 10
33.091994
 20
197.110827
 30
0.0
  0
SPLINE
  5
109
100
AcDbEntity
  8
0
 62
7
100
AcDbSpline
 70
8
 71
3
 72
8
 73
4
 74
0
 40
0
 40
0
 40
0
 40
0
 40
1
 40
1
 40
1
 40
1
 10
33.091994
 20
197.110827
 30
0.0
 10
33.710797
 20
196.753561
 30
0.0
 10
34.473192
 20
196.753561
 30
0.0
 10
35.091994
 20
197.110827
 30
0.0
  0
SPLINE
  5
10a
100
AcDbEntity
  8
0
 62
7
100
AcDbSpline
 70
8
 71
3
 72
8
 73
4
 74
0
 40
0
 40
0
 40
0
 40
0
 40
1
 40
1
 40
1
 40
1
 10
35.091994
 20
197.110827
 30
0.0
 10
35.710797
 20
197.468092
 30
0.0
 10
36.091995
 20
198.128346
 30
0.0
 10
36.091995
 20
198.842877
 30
0.0
  0
LWPOLYLINE
  5
10b
100
AcDbEntity
  8
0
 62
7
100
AcDbPolyline
 90
8
 70
1
 10
143.526171
 20
185.342879
 30
0.0
 10
181.293764
 20
185.342879
 30
0.0
 10
181.293764
 20
212.342879
 30
0.0
 10
143.526171
 20
212.342879
 30
0.0
 10
138.293763
 20
204.494267
 30
0.0
 10
138.293763
 20
193.191490
 30
0.0
 10
143.526171
 20
185.342879
 30
0.0
 10
143.526171
 20
185.342879
 30
0.0
  0
SPLINE
  5
10c
100
AcDbEntity
  8
0
 62
7
100
AcDbSpline
 70
8
 71
3
 72
8
 73
4
 74
0
 40
0
 40
0
 40
0
 40
0
 40
1
 40
1
 40
1
 40
1
 10
55.091994
 20
198.842877
 30
0.0
 10
55.091994
 20
199.557409
 30
0.0
 10
54.710797
 20
200.217663
 30
0.0
 10
54.091994
 20
200.574928
 30
0.0
  0
SPLINE
  5
10d
100
AcDbEntity
  8
0
 62
7
100
AcDbSpline
 70
8
 71
3
 72
8
 73
4
 74
0
 40
0
 40
0
 40
0
 40
0
 40
1
 40
1
 40
1
 40
1
 10
54.091994
 20
200.574928
 30
0.0
 10
53.473192
 20
200.932194
 30
0.0
 10
52.710797
 20
200.932194
 30
0.0
 10
52.091994
 20
200.574928
 30
0.0
  0
SPLINE
  5
10e
100
AcDbEntity
  8
0
 62
7
100
AcDbSpline
 70
8
 71
3
 72
8
 73
4
 74
0
 40
0
 40
0
 40
0
 40
0
 40
1
 40
1
 40
1
 40
1
 10
52.091994
 20
200.574928
 30
0.0
 10
51.473192
 20
200.217663
 30
0.0
 10
51.091994
 20
199.557409
 30
0.0
 10
51.091994
 20
198.842877
 30
0.0
  0
SPLINE
  5
10f
100
AcDbEntity
  8
0
 62
7
100
AcDbSpline
 70
8
 71
3
 72
8
 73
4
 74
0
 40
0
 40
0
 40
0
 40
0
 40
1
 40
1
 40
1
 40
1
 10
51.091994
 20
198.842877
 30
0.0
 10
51.091994
 20
198.128346
 30
0.0
 10
51.473192
 20
197.468092
 30
0.0
 10
52.091994
 20
197.110827
 30
0.0
  0
SPLINE
  5
110
100
AcDbEntity
  8
0
 62
7
100
AcDbSpline
 70
8
 71
3
 72
8
 73
4
 74
0
 40
0
 40
0
 40
0
 40
0
 40
1
 40
1
 40
1
 40
1
 10
52.091994
 20
197.110827
 30
0.0
 10
52.710797
 20
196.753561
 30
0.0
 10
53.473192
 20
196.753561
 30
0.0
 10
54.091994
 20
197.110827
 30
0.0
  0
SPLINE
  5
111
100
AcDbEntity
  8
0
 62
7
100
AcDbSpline
 70
8
 71
3
 72
8
 73
4
 74
0
 40
0
 40
0
 40
0
 40
0
 40
1
 40
1
 40
1
 40
1
 10
54.091994
 20
197.110827
 30
0.0
 10
54.710797
 20
197.468092
 30
0.0
 10
55.091994
 20
198.128346
 30
0.0
 10
55.091994
 20
198.842877
 30
0.0
  0
LWPOLYLINE
  5
112
100
AcDbEntity
  8
0
 62
7
100
AcDbPolyline
 90
2
 70
1
 10
36.091995
 20
198.842877
 30
0.0
 10
36.091995
 20
198.842877
 30
0.0
  0
LWPOLYLINE
  5
113
100
AcDbEntity
  8
0
 62
7
100
AcDbPolyline
 90
2
 70
1
 10
55.091994
 20
198.842877
 30
0.0
 10
55.091994
 20
198.842877
 30
0.0
  0
SPLINE
  5
114
100
AcDbEntity
  8
0
 62
7
100
AcDbSpline
 70
8
 71
3
 72
8
 73
4
 74
0
 40
0
 40
0
 40
0
 40
0
 40
1
 40
1
 40
1
 40
1
 10
91.074607
 20
30.141109
 30
0.0
 10
91.074607
 20
30.141109
 30
0.0
 10
84.331824
 20
13.284157
 30
0.0
 10
84.331824
 20
13.284157
 30
0.0
  0
SPLINE
  5
115
100
AcDbEntity
  8
0
 62
7
100
AcDbSpline
 70
8
 71
3
 72
8
 73
4
 74
0
 40
0
 40
0
 40
0
 40
0
 40
1
 40
1
 40
1
 40
1
 10
84.331824
 20
13.284157
 30
0.0
 10
83.572507
 20
11.385865
 30
0.0
 10
81.733964
 20
10.141110
 30
0.0
 10
79.689441
 20
10.141110
 30
0.0
  0
SPLINE
  5
116
100
AcDbEntity
  8
0
 62
7
100
AcDbSpline
 70
8
 71
3
 72
8
 73
4
 74
0
 40
0
 40
0
 40
0
 40
0
 40
1
 40
1
 40
1
 40
1
 10
79.689441
 20
10.141110
 30
0.0
 10
79.689441
 20
10.141110
 30
0.0
 10
27.122316
 20
10.141110
 30
0.0
 10
27.122316
 20
10.141110
 30
0.0
  0
SPLINE
  5
117
100
AcDbEntity
  8
0
 62
7
100
AcDbSpline
 70
8
 71
3
 72
8
 73
4
 74
0
 40
0
 40
0
 40
0
 40
0
 40
1
 40
1
 40
1
 40
1
 10
27.122316
 20
10.141110
 30
0.0
 10
25.077793
 20
10.141110
 30
0.0
 10
23.239249
 20
11.385865
 30
0.0
 10
22.479932
 20
13.284157
 30
0.0
  0
LWPOLYLINE
  5
118
100
AcDbEntity
  8
0
 62
7
100
AcDbPolyline
 90
20
 70
1
 10
288.995533
 20
56.342877
 30
0.0
 10
211.044649
 20
56.342877
 30
0.0
 10
211.044649
 20
54.991993
 30
0.0
 10
210.044648
 20
36.691992
 30
0.0
 10
195.444649
 20
36.691992
 30
0.0
 10
194.444648
 20
54.991993
 30
0.0
 10
194.444648
 20
56.342877
 30
0.0
 10
111.142879
 20
56.342877
 30
0.0
 10
111.142879
 20
54.991993
 30
0.0
 10
110.142881
 20
36.691992
 30
0.0
 10
95.542879
 20
36.691992
 30
0.0
 10
94.542878
 20
54.991993
 30
0.0
 10
94.542878
 20
56.342877
 30
0.0
 10
91.391994
 20
56.342877
 30
0.0
 10
91.109871
 20
54.742878
 30
0.0
 10
91.074607
 20
53.391993
 30
0.0
 10
91.074607
 20
30.341109
 30
0.0
 10
86.074606
 20
30.341109
 30
0.0
 10
86.074606
 20
30.141109
 30
0.0
 10
91.074607
 20
30.141109
 30
0.0
  0
SPLINE
  5
119
100
AcDbEntity
  8
0
 62
7
100
AcDbSpline
 70
8
 71
3
 72
8
 73
4
 74
0
 40
0
 40
0
 40
0
 40
0
 40
1
 40
1
 40
1
 40
1
 10
13.341110
 20
75.442879
 30
0.0
 10
13.341110
 20
75.442879
 30
0.0
 10
13.141111
 20
75.442879
 30
0.0
 10
13.141111
 20
75.442879
 30
0.0
  0
SPLINE
  5
11a
100
AcDbEntity
  8
0
 62
7
100
AcDbSpline
 70
8
 71
3
 72
8
 73
4
 74
0
 40
0
 40
0
 40
0
 40
0
 40
1
 40
1
 40
1
 40
1
 10
13.141111
 20
75.442879
 30
0.0
 10
11.484257
 20
75.442879
 30
0.0
 10
10.141111
 20
76.786024
 30
0.0
 10
10.141111
 20
78.442878
 30
0.0
  0
SPLINE
  5
11b
100
AcDbEntity
  8
0
 62
7
100
AcDbSpline
 70
8
 71
3
 72
8
 73
4
 74
0
 40
0
 40
0
 40
0
 40
0
 40
1
 40
1
 40
1
 40
1
 10
10.141111
 20
78.442878
 30
0.0
 10
10.141111
 20
78.442878
 30
0.0
 10
10.141111
 20
105.242878
 30
0.0
 10
10.141111
 20
105.242878
 30
0.0
  0
SPLINE
  5
11c
100
AcDbEntity
  8
0
 62
7
100
AcDbSpline
 70
8
 71
3
 72
8
 73
4
 74
0
 40
0
 40
0
 40
0
 40
0
 40
1
 40
1
 40
1
 40
1
 10
10.141111
 20
105.242878
 30
0.0
 10
10.141111
 20
106.899732
 30
0.0
 10
11.484257
 20
108.242878
 30
0.0
 10
13.141111
 20
108.242878
 30
0.0
  0
LWPOLYLINE
  5
11d
100
AcDbEntity
  8
0
 62
7
100
AcDbPolyline
 90
13
 70
1
 10
22.479932
 20
13.284157
 30
0.0
 10
15.737151
 20
30.141109
 30
0.0
 10
20.737151
 20
30.141109
 30
0.0
 10
20.737151
 20
30.341109
 30
0.0
 10
15.737151
 20
30.341109
 30
0.0
 10
15.737151
 20
53.391993
 30
0.0
 10
15.498800
 20
54.742878
 30
0.0
 10
13.591994
 20
56.342877
 30
0.0
 10
13.591994
 20
76.642879
 30
0.0
 10
17.541994
 20
76.642879
 30
0.0
 10
17.541994
 20
76.842879
 30
0.0
 10
13.341110
 20
76.842879
 30
0.0
 10
13.341110
 20
75.442879
 30
0.0
  0
SPLINE
  5
11e
100
AcDbEntity
  8
0
 62
7
100
AcDbSpline
 70
8
 71
3
 72
8
 73
4
 74
0
 40
0
 40
0
 40
0
 40
0
 40
1
 40
1
 40
1
 40
1
 10
13.341110
 20
144.442879
 30
0.0
 10
13.341110
 20
144.442879
 30
0.0
 10
13.141111
 20
144.442879
 30
0.0
 10
13.141111
 20
144.442879
 30
0.0
  0
SPLINE
  5
11f
100
AcDbEntity
  8
0
 62
7
100
AcDbSpline
 70
8
 71
3
 72
8
 73
4
 74
0
 40
0
 40
0
 40
0
 40
0
 40
1
 40
1
 40
1
 40
1
 10
13.141111
 20
144.442879
 30
0.0
 10
11.484257
 20
144.442879
 30
0.0
 10
10.141111
 20
145.786025
 30
0.0
 10
10.141111
 20
147.442879
 30
0.0
  0
SPLINE
  5
120
100
AcDbEntity
  8
0
 62
7
100
AcDbSpline
 70
8
 71
3
 72
8
 73
4
 74
0
 40
0
 40
0
 40
0
 40
0
 40
1
 40
1
 40
1
 40
1
 10
10.141111
 20
147.442879
 30
0.0
 10
10.141111
 20
147.442879
 30
0.0
 10
10.141111
 20
174.246785
 30
0.0
 10
10.141111
 20
174.246785
 30
0.0
  0
SPLINE
  5
121
100
AcDbEntity
  8
0
 62
7
100
AcDbSpline
 70
8
 71
3
 72
8
 73
4
 74
0
 40
0
 40
0
 40
0
 40
0
 40
1
 40
1
 40
1
 40
1
 10
10.141111
 20
174.246785
 30
0.0
 10
10.141111
 20
175.903639
 30
0.0
 10
11.484257
 20
177.246784
 30
0.0
 10
13.141111
 20
177.246784
 30
0.0
  0
LWPOLYLINE
  5
122
100
AcDbEntity
  8
0
 62
7
100
AcDbPolyline
 90
11
 70
1
 10
13.141111
 20
108.242878
 30
0.0
 10
13.341110
 20
108.242878
 30
0.0
 10
13.341110
 20
106.842878
 30
0.0
 10
17.541994
 20
106.842878
 30
0.0
 10
17.541994
 20
107.042878
 30
0.0
 10
13.591994
 20
107.042878
 30
0.0
 10
13.591994
 20
145.642879
 30
0.0
 10
17.541994
 20
145.642879
 30
0.0
 10
17.541994
 20
145.842879
 30
0.0
 10
13.341110
 20
145.842879
 30
0.0
 10
13.341110
 20
144.442879
 30
0.0
  0
SPLINE
  5
123
100
AcDbEntity
  8
0
 62
7
100
AcDbSpline
 70
8
 71
3
 72
8
 73
4
 74
0
 40
0
 40
0
 40
0
 40
0
 40
1
 40
1
 40
1
 40
1
 10
291.495534
 20
107.243763
 30
0.0
 10
293.152388
 20
107.243763
 30
0.0
 10
294.495533
 20
105.900618
 30
0.0
 10
294.495533
 20
104.243764
 30
0.0
  0
SPLINE
  5
124
100
AcDbEntity
  8
0
 62
7
100
AcDbSpline
 70
8
 71
3
 72
8
 73
4
 74
0
 40
0
 40
0
 40
0
 40
0
 40
1
 40
1
 40
1
 40
1
 10
294.495533
 20
104.243764
 30
0.0
 10
294.495533
 20
104.243764
 30
0.0
 10
294.495533
 20
97.943762
 30
0.0
 10
294.495533
 20
97.943762
 30
0.0
  0
SPLINE
  5
125
100
AcDbEntity
  8
0
 62
7
100
AcDbSpline
 70
8
 71
3
 72
8
 73
4
 74
0
 40
0
 40
0
 40
0
 40
0
 40
1
 40
1
 40
1
 40
1
 10
294.495533
 20
97.943762
 30
0.0
 10
294.495533
 20
96.286908
 30
0.0
 10
293.152388
 20
94.943763
 30
0.0
 10
291.495534
 20
94.943763
 30
0.0
  0
LWPOLYLINE
  5
126
100
AcDbEntity
  8
0
 62
7
100
AcDbPolyline
 90
20
 70
1
 10
13.141111
 20
177.246784
 30
0.0
 10
13.341110
 20
177.246784
 30
0.0
 10
13.341110
 20
175.846784
 30
0.0
 10
17.541994
 20
175.846784
 30
0.0
 10
17.541994
 20
176.046784
 30
0.0
 10
14.791995
 20
176.046784
 30
0.0
 10
14.791995
 20
216.342879
 30
0.0
 10
214.544650
 20
216.342879
 30
0.0
 10
214.544650
 20
181.342879
 30
0.0
 10
225.695533
 20
181.342879
 30
0.0
 10
225.695533
 20
90.392878
 30
0.0
 10
225.895535
 20
90.392878
 30
0.0
 10
225.895535
 20
112.493763
 30
0.0
 10
275.895534
 20
112.493763
 30
0.0
 10
275.895534
 20
111.193763
 30
0.0
 10
288.995533
 20
111.193763
 30
0.0
 10
288.995533
 20
105.843763
 30
0.0
 10
291.295534
 20
105.843763
 30
0.0
 10
291.295534
 20
107.243763
 30
0.0
 10
291.495534
 20
107.243763
 30
0.0
  0
SPLINE
  5
127
100
AcDbEntity
  8
0
 62
7
100
AcDbSpline
 70
8
 71
3
 72
8
 73
4
 74
0
 40
0
 40
0
 40
0
 40
0
 40
1
 40
1
 40
1
 40
1
 10
291.495534
 20
82.492877
 30
0.0
 10
293.152388
 20
82.492877
 30
0.0
 10
294.495533
 20
81.149732
 30
0.0
 10
294.495533
 20
79.492878
 30
0.0
  0
SPLINE
  5
128
100
AcDbEntity
  8
0
 62
7
100
AcDbSpline
 70
8
 71
3
 72
8
 73
4
 74
0
 40
0
 40
0
 40
0
 40
0
 40
1
 40
1
 40
1
 40
1
 10
294.495533
 20
79.492878
 30
0.0
 10
294.495533
 20
79.492878
 30
0.0
 10
294.495533
 20
63.192879
 30
0.0
 10
294.495533
 20
63.192879
 30
0.0
  0
SPLINE
  5
129
100
AcDbEntity
  8
0
 62
7
100
AcDbSpline
 70
8
 71
3
 72
8
 73
4
 74
0
 40
0
 40
0
 40
0
 40
0
 40
1
 40
1
 40
1
 40
1
 10
294.495533
 20
63.192879
 30
0.0
 10
294.495533
 20
61.536025
 30
0.0
 10
293.152388
 20
60.192880
 30
0.0
 10
291.495534
 20
60.192880
 30
0.0
  0
LWPOLYLINE
  5
12a
100
AcDbEntity
  8
0
 62
7
100
AcDbPolyline
 90
8
 70
1
 10
291.495534
 20
94.943763
 30
0.0
 10
291.295534
 20
94.943763
 30
0.0
 10
291.295534
 20
96.343763
 30
0.0
 10
288.995533
 20
96.343763
 30
0.0
 10
288.995533
 20
81.092877
 30
0.0
 10
291.295534
 20
81.092877
 30
0.0
 10
291.295534
 20
82.492877
 30
0.0
 10
291.495534
 20
82.492877
 30
0.0
  0
LWPOLYLINE
  5
12b
100
AcDbEntity
  8
0
 62
7
100
AcDbPolyline
 90
6
 70
1
 10
291.495534
 20
60.192880
 30
0.0
 10
291.295534
 20
60.192880
 30
0.0
 10
291.295534
 20
61.592880
 30
0.0
 10
288.995533
 20
61.592880
 30
0.0
 10
288.995533
 20
56.342877
 30
0.0
 10
288.995533
 20
56.342877
 30
0.0
  0
LWPOLYLINE
  5
12c
100
AcDbEntity
  8
0
 62
7
100
AcDbPolyline
 90
6
 70
1
 10
212.395534
 20
107.342880
 30
0.0
 10
212.395534
 20
76.342880
 30
0.0
 10
214.895534
 20
76.342880
 30
0.0
 10
214.895534
 20
107.342880
 30
0.0
 10
212.395534
 20
107.342880
 30
0.0
 10
212.395534
 20
107.342880
 30
0.0
  0
LWPOLYLINE
  5
12d
100
AcDbEntity
  8
0
 62
7
100
AcDbPolyline
 90
6
 70
1
 10
212.844648
 20
203.242877
 30
0.0
 10
212.844648
 20
211.342878
 30
0.0
 10
197.844650
 20
211.342878
 30
0.0
 10
197.844650
 20
203.242877
 30
0.0
 10
212.844648
 20
203.242877
 30
0.0
 10
212.844648
 20
203.242877
 30
0.0
  0
LWPOLYLINE
  5
12e
100
AcDbEntity
  8
0
 62
7
100
AcDbPolyline
 90
6
 70
1
 10
212.844648
 20
194.442878
 30
0.0
 10
197.844650
 20
194.442878
 30
0.0
 10
197.844650
 20
186.342880
 30
0.0
 10
212.844648
 20
186.342880
 30
0.0
 10
212.844648
 20
194.442878
 30
0.0
 10
212.844648
 20
194.442878
 30
0.0
  0
LWPOLYLINE
  5
12f
100
AcDbEntity
  8
0
 62
7
100
AcDbPolyline
 90
6
 70
1
 10
206.744649
 20
149.842879
 30
0.0
 10
196.744649
 20
149.842879
 30
0.0
 10
196.744649
 20
136.342878
 30
0.0
 10
206.744649
 20
136.342878
 30
0.0
 10
206.744649
 20
149.842879
 30
0.0
 10
206.744649
 20
149.842879
 30
0.0
  0
LWPOLYLINE
  5
130
100
AcDbEntity
  8
0
 62
7
100
AcDbPolyline
 90
6
 70
1
 10
212.395534
 20
176.342877
 30
0.0
 10
212.395534
 20
145.342877
 30
0.0
 10
214.895534
 20
145.342877
 30
0.0
 10
214.895534
 20
176.342877
 30
0.0
 10
212.395534
 20
176.342877
 30
0.0
 10
212.395534
 20
176.342877
 30
0.0
  0
LWPOLYLINE
  5
131
100
AcDbEntity
  8
0
 62
7
100
AcDbPolyline
 90
2
 70
0
 10
225.895535
 20
91.818321
 30
0.0
 10
288.995533
 20
91.818321
 30
0.0
  0
LWPOLYLINE
  5
132
100
AcDbEntity
  8
0
 62
7
100
AcDbPolyline
 90
2
 70
0
 10
211.720091
 20
181.342879
 30
0.0
 10
211.720091
 20
56.342877
 30
0.0
  0
LWPOLYLINE
  5
133
100
AcDbEntity
  8
0
 62
7
100
AcDbPolyline
 90
2
 70
0
 10
211.044649
 20
55.667435
 30
0.0
 10
194.444648
 20
55.667435
 30
0.0
  0
LWPOLYLINE
  5
134
100
AcDbEntity
  8
0
 62
7
100
AcDbPolyline
 90
2
 70
0
 10
191.769207
 20
216.342879
 30
0.0
 10
191.769207
 20
56.342877
 30
0.0
  0
LWPOLYLINE
  5
135
100
AcDbEntity
  8
0
 62
7
100
AcDbPolyline
 90
2
 70
0
 10
111.142879
 20
55.667435
 30
0.0
 10
94.542878
 20
55.667435
 30
0.0
  0
LWPOLYLINE
  5
136
100
AcDbEntity
  8
0
 62
7
100
AcDbPolyline
 90
2
 70
0
 10
113.818323
 20
56.342877
 30
0.0
 10
113.818323
 20
216.342879
 30
0.0
  0
LWPOLYLINE
  5
137
100
AcDbEntity
  8
0
 62
7
100
AcDbPolyline
 90
2
 70
0
 10
92.067436
 20
56.342877
 30
0.0
 10
92.067436
 20
216.342879
 30
0.0
  0
LWPOLYLINE
  5
138
100
AcDbEntity
  8
0
 62
7
100
AcDbPolyline
 90
2
 70
0
 10
91.092237
 20
54.067435
 30
0.0
 10
15.617975
 20
54.067435
 30
0.0
  0
LWPOLYLINE
  5
139
100
AcDbEntity
  8
0
 62
7
100
AcDbPolyline
 90
2
 70
0
 10
91.074607
 20
34.116551
 30
0.0
 10
15.737151
 20
34.116551
 30
0.0
  0
LWPOLYLINE
  5
13a
100
AcDbEntity
  8
0
 62
7
100
AcDbPolyline
 90
2
 70
0
 10
16.116552
 20
76.842879
 30
0.0
 10
16.116552
 20
106.842878
 30
0.0
  0
LWPOLYLINE
  5
13b
100
AcDbEntity
  8
0
 62
7
100
AcDbPolyline
 90
2
 70
0
 10
16.116552
 20
145.842879
 30
0.0
 10
16.116552
 20
175.846784
 30
0.0
  0
ENDSEC
  0
SECTION
  2
OBJECTS
  0
DICTIONARY
  5
C
330
0
100
AcDbDictionary
  3
ACAD_GROUP
350
D
  3
ACAD_MLINESTYLE
350
17
  0
DICTIONARY
  5
D
330
C
100
AcDbDictionary
  0
DICTIONARY
  5
1A
330
C
100
AcDbDictionary
  0
DICTIONARY
  5
17
330
C
100
AcDbDictionary
  3
STANDARD
350
18
  0
DICTIONARY
  5
19
330
C
100
AcDbDictionary
  0
ENDSEC
  0
EOF
