  0
SECTION
  2
HEADER
  9
$ACADVER
  1
AC1014
  9
$HANDSEED
  5
FFFF
  9
$MEASUREMENT
 70
     1
  0
ENDSEC
  0
SECTION
  2
TABLES
  0
TABLE
  2
VPORT
  5
8
330
0
100
AcDbSymbolTable
 70
     4
  0
VPORT
  5
2E
330
8
100
AcDbSymbolTableRecord
100
AcDbViewportTableRecord
  2
*ACTIVE
 70
     0
 10
0.0
 20
0.0
 11
1.0
 21
1.0
 12
210.0
 22
148.5
 13
0.0
 23
0.0
 14
10.0
 24
10.0
 15
10.0
 25
10.0
 16
0.0
 26
0.0
 36
1.0
 17
0.0
 27
0.0
 37
0.0
 40
341.0
 41
1.24
 42
50.0
 43
0.0
 44
0.0
 50
0.0
 51
0.0
 71
     0
 72
   100
 73
     1
 74
     3
 75
     0
 76
     0
 77
     0
 78
     0
  0
ENDTAB
  0
TABLE
  2
LTYPE
  5
5
330
0
100
AcDbSymbolTable
 70
     1
  0
LTYPE
  5
14
330
5
100
AcDbSymbolTableRecord
100
AcDbLinetypeTableRecord
  2
BYBLOCK
 70
     0
  3

 72
    65
 73
     0
 40
0.0
  0
LTYPE
  5
15
330
5
100
AcDbSymbolTableRecord
100
AcDbLinetypeTableRecord
  2
BYLAYER
 70
     0
  3

 72
    65
 73
     0
 40
0.0
  0
LTYPE
  5
16
330
5
100
AcDbSymbolTableRecord
100
AcDbLinetypeTableRecord
  2
CONTINUOUS
 70
     0
  3
Solid line
 72
    65
 73
     0
 40
0.0
  0
ENDTAB
  0
TABLE
  2
LAYER
  5
2
100
AcDbSymbolTable
 70
1
  0
LAYER
  5
50
100
AcDbSymbolTableRecord
100
AcDbLayerTableRecord
  2
0
 70
0
  6
CONTINUOUS
  0
ENDTAB
  0
TABLE
  2
STYLE
  5
3
330
0
100
AcDbSymbolTable
 70
     1
  0
STYLE
  5
11
330
3
100
AcDbSymbolTableRecord
100
AcDbTextStyleTableRecord
  2
STANDARD
 70
     0
 40
0.0
 41
1.0
 50
0.0
 71
     0
 42
2.5
  3
txt
  4

  0
ENDTAB
  0
TABLE
  2
VIEW
  5
6
330
0
100
AcDbSymbolTable
 70
     0
  0
ENDTAB
  0
TABLE
  2
UCS
  5
7
330
0
100
AcDbSymbolTable
 70
     0
  0
ENDTAB
  0
TABLE
  2
APPID
  5
9
330
0
100
AcDbSymbolTable
 70
     2
  0
APPID
  5
12
330
9
100
AcDbSymbolTableRecord
100
AcDbRegAppTableRecord
  2
ACAD
 70
     0
  0
ENDTAB
  0
TABLE
  2
DIMSTYLE
  5
A
330
0
100
AcDbSymbolTable
 70
     1
  0
DIMSTYLE
105
27
330
A
100
AcDbSymbolTableRecord
100
AcDbDimStyleTableRecord
  2
ISO-25
 70
     0
  3

  4

  5

  6

  7

 40
1.0
 41
2.5
 42
0.625
 43
3.75
 44
1.25
 45
0.0
 46
0.0
 47
0.0
 48
0.0
140
2.5
141
2.5
142
0.0
143
0.03937007874016
144
1.0
145
0.0
146
1.0
147
0.625
 71
     0
 72
     0
 73
     0
 74
     0
 75
     0
 76
     0
 77
     1
 78
     8
170
     0
171
     3
172
     1
173
     0
174
     0
175
     0
176
     0
177
     0
178
     0
270
     2
271
     2
272
     2
273
     2
274
     3
340
11
275
     0
280
     0
281
     0
282
     0
283
     0
284
     8
285
     0
286
     0
287
     3
288
     0
  0
ENDTAB
  0
TABLE
  2
BLOCK_RECORD
  5
1
330
0
100
AcDbSymbolTable
 70
     1
  0
BLOCK_RECORD
  5
1F
330
1
100
AcDbSymbolTableRecord
100
AcDbBlockTableRecord
  2
*MODEL_SPACE
  0
BLOCK_RECORD
  5
1B
330
1
100
AcDbSymbolTableRecord
100
AcDbBlockTableRecord
  2
*PAPER_SPACE
  0
ENDTAB
  0
ENDSEC
  0
SECTION
  2
BLOCKS
  0
BLOCK
  5
20
330
1F
100
AcDbEntity
  8
0
100
AcDbBlockBegin
  2
*MODEL_SPACE
 70
     0
 10
0.0
 20
0.0
 30
0.0
  3
*MODEL_SPACE
  1

  0
ENDBLK
  5
21
330
1F
100
AcDbEntity
  8
0
100
AcDbBlockEnd
  0
BLOCK
  5
1C
330
1B
100
AcDbEntity
 67
     1
  8
0
100
AcDbBlockBegin
  2
*PAPER_SPACE
  1

  0
ENDBLK
  5
1D
330
1B
100
AcDbEntity
 67
     1
  8
0
100
AcDbBlockEnd
  0
ENDSEC
  0
SECTION
  2
ENTITIES
  0
SPLINE
  5
100
100
AcDbEntity
  8
0
 62
7
100
AcDbSpline
 70
8
 71
3
 72
8
 73
4
 74
0
 40
0
 40
0
 40
0
 40
0
 40
1
 40
1
 40
1
 40
1
 10
29.882290
 20
250.557519
 30
0.0
 10
29.882290
 20
248.771191
 30
0.0
 10
30.835285
 20
247.120556
 30
0.0
 10
32.382291
 20
246.227392
 30
0.0
  0
SPLINE
  5
101
100
AcDbEntity
  8
0
 62
7
100
AcDbSpline
 70
8
 71
3
 72
8
 73
4
 74
0
 40
0
 40
0
 40
0
 40
0
 40
1
 40
1
 40
1
 40
1
 10
32.382291
 20
246.227392
 30
0.0
 10
33.929296
 20
245.334228
 30
0.0
 10
35.835286
 20
245.334228
 30
0.0
 10
37.382291
 20
246.227392
 30
0.0
  0
SPLINE
  5
102
100
AcDbEntity
  8
0
 62
7
100
AcDbSpline
 70
8
 71
3
 72
8
 73
4
 74
0
 40
0
 40
0
 40
0
 40
0
 40
1
 40
1
 40
1
 40
1
 10
37.382291
 20
246.227392
 30
0.0
 10
38.929297
 20
247.120556
 30
0.0
 10
39.882292
 20
248.771191
 30
0.0
 10
39.882292
 20
250.557519
 30
0.0
  0
SPLINE
  5
103
100
AcDbEntity
  8
0
 62
7
100
AcDbSpline
 70
8
 71
3
 72
8
 73
4
 74
0
 40
0
 40
0
 40
0
 40
0
 40
1
 40
1
 40
1
 40
1
 10
39.882292
 20
250.557519
 30
0.0
 10
39.882292
 20
252.343848
 30
0.0
 10
38.929297
 20
253.994483
 30
0.0
 10
37.382291
 20
254.887647
 30
0.0
  0
SPLINE
  5
104
100
AcDbEntity
  8
0
 62
7
100
AcDbSpline
 70
8
 71
3
 72
8
 73
4
 74
0
 40
0
 40
0
 40
0
 40
0
 40
1
 40
1
 40
1
 40
1
 10
37.382291
 20
254.887647
 30
0.0
 10
35.835286
 20
255.780811
 30
0.0
 10
33.929296
 20
255.780811
 30
0.0
 10
32.382291
 20
254.887647
 30
0.0
  0
SPLINE
  5
105
100
AcDbEntity
  8
0
 62
7
100
AcDbSpline
 70
8
 71
3
 72
8
 73
4
 74
0
 40
0
 40
0
 40
0
 40
0
 40
1
 40
1
 40
1
 40
1
 10
32.382291
 20
254.887647
 30
0.0
 10
30.835285
 20
253.994483
 30
0.0
 10
29.882290
 20
252.343848
 30
0.0
 10
29.882290
 20
250.557519
 30
0.0
  0
LWPOLYLINE
  5
106
100
AcDbEntity
  8
0
 62
7
100
AcDbPolyline
 90
4
 70
1
 10
95.726097
 20
95.319916
 30
0.0
 10
93.726098
 20
95.319916
 30
0.0
 10
93.726098
 20
75.319903
 30
0.0
 10
95.726097
 20
75.319903
 30
0.0
  0
SPLINE
  5
107
100
AcDbEntity
  8
0
 62
7
100
AcDbSpline
 70
8
 71
3
 72
8
 73
4
 74
0
 40
0
 40
0
 40
0
 40
0
 40
1
 40
1
 40
1
 40
1
 10
49.132292
 20
250.557519
 30
0.0
 10
49.132292
 20
248.771191
 30
0.0
 10
50.085286
 20
247.120556
 30
0.0
 10
51.632292
 20
246.227392
 30
0.0
  0
SPLINE
  5
108
100
AcDbEntity
  8
0
 62
7
100
AcDbSpline
 70
8
 71
3
 72
8
 73
4
 74
0
 40
0
 40
0
 40
0
 40
0
 40
1
 40
1
 40
1
 40
1
 10
51.632292
 20
246.227392
 30
0.0
 10
53.179297
 20
245.334228
 30
0.0
 10
55.085287
 20
245.334228
 30
0.0
 10
56.632292
 20
246.227392
 30
0.0
  0
SPLINE
  5
109
100
AcDbEntity
  8
0
 62
7
100
AcDbSpline
 70
8
 71
3
 72
8
 73
4
 74
0
 40
0
 40
0
 40
0
 40
0
 40
1
 40
1
 40
1
 40
1
 10
56.632292
 20
246.227392
 30
0.0
 10
58.179298
 20
247.120556
 30
0.0
 10
59.132293
 20
248.771191
 30
0.0
 10
59.132293
 20
250.557519
 30
0.0
  0
SPLINE
  5
10a
100
AcDbEntity
  8
0
 62
7
100
AcDbSpline
 70
8
 71
3
 72
8
 73
4
 74
0
 40
0
 40
0
 40
0
 40
0
 40
1
 40
1
 40
1
 40
1
 10
59.132293
 20
250.557519
 30
0.0
 10
59.132293
 20
252.343848
 30
0.0
 10
58.179298
 20
253.994483
 30
0.0
 10
56.632292
 20
254.887647
 30
0.0
  0
SPLINE
  5
10b
100
AcDbEntity
  8
0
 62
7
100
AcDbSpline
 70
8
 71
3
 72
8
 73
4
 74
0
 40
0
 40
0
 40
0
 40
0
 40
1
 40
1
 40
1
 40
1
 10
56.632292
 20
254.887647
 30
0.0
 10
55.085287
 20
255.780811
 30
0.0
 10
53.179297
 20
255.780811
 30
0.0
 10
51.632292
 20
254.887647
 30
0.0
  0
SPLINE
  5
10c
100
AcDbEntity
  8
0
 62
7
100
AcDbSpline
 70
8
 71
3
 72
8
 73
4
 74
0
 40
0
 40
0
 40
0
 40
0
 40
1
 40
1
 40
1
 40
1
 10
51.632292
 20
254.887647
 30
0.0
 10
50.085286
 20
253.994483
 30
0.0
 10
49.132292
 20
252.343848
 30
0.0
 10
49.132292
 20
250.557519
 30
0.0
  0
LWPOLYLINE
  5
10d
100
AcDbEntity
  8
0
 62
7
100
AcDbPolyline
 90
1
 70
1
 10
29.882290
 20
250.557519
 30
0.0
  0
LWPOLYLINE
  5
10e
100
AcDbEntity
  8
0
 62
7
100
AcDbPolyline
 90
1
 70
1
 10
49.132292
 20
250.557519
 30
0.0
  0
LWPOLYLINE
  5
10f
100
AcDbEntity
  8
0
 62
7
100
AcDbPolyline
 90
4
 70
1
 10
49.632291
 20
214.569900
 30
0.0
 10
49.632291
 20
205.569913
 30
0.0
 10
58.632291
 20
205.569913
 30
0.0
 10
58.632291
 20
214.569900
 30
0.0
  0
LWPOLYLINE
  5
110
100
AcDbEntity
  8
0
 62
7
100
AcDbPolyline
 90
4
 70
1
 10
30.382292
 20
214.569900
 30
0.0
 10
30.382292
 20
205.569913
 30
0.0
 10
39.382293
 20
205.569913
 30
0.0
 10
39.382293
 20
214.569900
 30
0.0
  0
LWPOLYLINE
  5
111
100
AcDbEntity
  8
0
 62
7
100
AcDbPolyline
 90
4
 70
1
 10
101.226096
 20
105.419909
 30
0.0
 10
121.226096
 20
105.419909
 30
0.0
 10
121.226096
 20
107.719905
 30
0.0
 10
101.226096
 20
107.719905
 30
0.0
  0
LWPOLYLINE
  5
112
100
AcDbEntity
  8
0
 62
7
100
AcDbPolyline
 90
4
 70
1
 10
104.226095
 20
222.319916
 30
0.0
 10
104.226095
 20
214.319895
 30
0.0
 10
122.226096
 20
214.319895
 30
0.0
 10
122.226096
 20
222.319916
 30
0.0
  0
LWPOLYLINE
  5
113
100
AcDbEntity
  8
0
 62
7
100
AcDbPolyline
 90
4
 70
1
 10
98.526097
 20
215.819897
 30
0.0
 10
96.226096
 20
215.819897
 30
0.0
 10
96.226096
 20
200.819901
 30
0.0
 10
98.526097
 20
200.819901
 30
0.0
  0
LWPOLYLINE
  5
114
100
AcDbEntity
  8
0
 62
7
100
AcDbPolyline
 90
4
 70
1
 10
136.419902
 20
107.719905
 30
0.0
 10
136.419902
 20
105.419909
 30
0.0
 10
173.419902
 20
105.419909
 30
0.0
 10
173.419902
 20
107.719905
 30
0.0
  0
LWPOLYLINE
  5
115
100
AcDbEntity
  8
0
 62
7
100
AcDbPolyline
 90
4
 70
1
 10
235.407512
 20
117.319914
 30
0.0
 10
235.407512
 20
77.319915
 30
0.0
 10
237.907512
 20
77.319915
 30
0.0
 10
237.907512
 20
117.319914
 30
0.0
  0
LWPOLYLINE
  5
116
100
AcDbEntity
  8
0
 62
7
100
AcDbPolyline
 90
4
 70
1
 10
233.413707
 20
215.819897
 30
0.0
 10
231.113708
 20
215.819897
 30
0.0
 10
231.113708
 20
200.819901
 30
0.0
 10
233.413707
 20
200.819901
 30
0.0
  0
LWPOLYLINE
  5
117
100
AcDbEntity
  8
0
 62
7
100
AcDbPolyline
 90
4
 70
1
 10
225.413708
 20
214.319895
 30
0.0
 10
225.413708
 20
222.319916
 30
0.0
 10
207.413707
 20
222.319916
 30
0.0
 10
207.413707
 20
214.319895
 30
0.0
  0
LWPOLYLINE
  5
118
100
AcDbEntity
  8
0
 62
7
100
AcDbPolyline
 90
4
 70
1
 10
222.413708
 20
140.819915
 30
0.0
 10
212.413707
 20
140.819915
 30
0.0
 10
212.413707
 20
127.319894
 30
0.0
 10
222.413708
 20
127.319894
 30
0.0
  0
LWPOLYLINE
  5
119
100
AcDbEntity
  8
0
 62
7
100
AcDbPolyline
 90
4
 70
1
 10
235.407512
 20
187.319907
 30
0.0
 10
235.407512
 20
157.319914
 30
0.0
 10
237.907512
 20
157.319914
 30
0.0
 10
237.907512
 20
187.319907
 30
0.0
  0
LWPOLYLINE
  5
11a
100
AcDbEntity
  8
0
 62
7
100
AcDbPolyline
 90
3
 70
0
 10
311.807513
 20
94.819907
 30
0.0
 10
311.807513
 20
113.213713
 30
0.0
 10
314.307511
 20
113.213713
 30
0.0
  0
LWPOLYLINE
  5
11b
100
AcDbEntity
  8
0
 62
7
100
AcDbPolyline
 90
2
 70
0
 10
317.807512
 20
77.419901
 30
0.0
 10
317.807512
 20
93.219892
 30
0.0
  0
LWPOLYLINE
  5
11c
100
AcDbEntity
  8
0
 62
7
100
AcDbPolyline
 90
16
 70
0
 10
314.307511
 20
132.213707
 30
0.0
 10
311.807513
 20
132.213707
 30
0.0
 10
311.807513
 20
136.713714
 30
0.0
 10
301.907511
 20
136.713714
 30
0.0
 10
301.907511
 20
138.313702
 30
0.0
 10
265.407513
 20
138.313702
 30
0.0
 10
265.407513
 20
105.619907
 30
0.0
 10
265.107513
 20
105.619907
 30
0.0
 10
265.107513
 20
191.319904
 30
0.0
 10
234.213707
 20
191.319904
 30
0.0
 10
234.213707
 20
191.419917
 30
0.0
 10
237.513707
 20
191.419917
 30
0.0
 10
237.513707
 20
227.319906
 30
0.0
 10
91.632291
 20
227.319906
 30
0.0
 10
91.632291
 20
245.307525
 30
0.0
 10
94.632291
 20
245.307525
 30
0.0
  0
LWPOLYLINE
  5
11d
100
AcDbEntity
  8
0
 62
7
100
AcDbPolyline
 90
2
 70
0
 10
98.132291
 20
246.907513
 30
0.0
 10
98.132291
 20
257.707514
 30
0.0
  0
LWPOLYLINE
  5
11e
100
AcDbEntity
  8
0
 62
7
100
AcDbPolyline
 90
2
 70
0
 10
94.632291
 20
259.307528
 30
0.0
 10
13.632291
 20
259.307528
 30
0.0
  0
LWPOLYLINE
  5
11f
100
AcDbEntity
  8
0
 62
7
100
AcDbPolyline
 90
2
 70
0
 10
10.132293
 20
257.707514
 30
0.0
 10
10.132293
 20
246.907513
 30
0.0
  0
LWPOLYLINE
  5
120
100
AcDbEntity
  8
0
 62
7
100
AcDbPolyline
 90
5
 70
0
 10
13.632291
 20
245.307525
 30
0.0
 10
16.632290
 20
245.307525
 30
0.0
 10
16.632290
 20
227.319906
 30
0.0
 10
15.732292
 20
227.319906
 30
0.0
 10
15.732292
 20
187.019896
 30
0.0
  0
LWPOLYLINE
  5
121
100
AcDbEntity
  8
0
 62
7
100
AcDbPolyline
 90
2
 70
0
 10
18.032291
 20
186.719911
 30
0.0
 10
14.838487
 20
186.719911
 30
0.0
  0
LWPOLYLINE
  5
122
100
AcDbEntity
  8
0
 62
7
100
AcDbPolyline
 90
2
 70
0
 10
10.338485
 20
184.119904
 30
0.0
 10
10.338485
 20
160.519917
 30
0.0
  0
LWPOLYLINE
  5
123
100
AcDbEntity
  8
0
 62
7
100
AcDbPolyline
 90
2
 70
0
 10
14.338485
 20
77.919911
 30
0.0
 10
18.032291
 20
77.919911
 30
0.0
  0
SPLINE
  5
124
100
AcDbEntity
  8
0
 62
7
100
AcDbSpline
 70
8
 71
3
 72
8
 73
4
 74
0
 40
0
 40
0
 40
0
 40
0
 40
1
 40
1
 40
1
 40
1
 10
10.338485
 20
160.519917
 30
0.0
 10
10.338479
 20
159.459047
 30
0.0
 10
10.759904
 20
158.441625
 30
0.0
 10
11.510050
 20
157.691475
 30
0.0
  0
SPLINE
  5
125
100
AcDbEntity
  8
0
 62
7
100
AcDbSpline
 70
8
 71
3
 72
8
 73
4
 74
0
 40
0
 40
0
 40
0
 40
0
 40
1
 40
1
 40
1
 40
1
 10
11.510050
 20
157.691475
 30
0.0
 10
12.260196
 20
156.941324
 30
0.0
 10
13.277615
 20
156.519893
 30
0.0
 10
14.338485
 20
156.519893
 30
0.0
  0
LWPOLYLINE
  5
126
100
AcDbEntity
  8
0
 62
7
100
AcDbPolyline
 90
2
 70
0
 10
15.732292
 20
157.619898
 30
0.0
 10
15.732292
 20
117.019903
 30
0.0
  0
LWPOLYLINE
  5
127
100
AcDbEntity
  8
0
 62
7
100
AcDbPolyline
 90
4
 70
0
 10
14.338485
 20
156.519893
 30
0.0
 10
14.838487
 20
156.519893
 30
0.0
 10
14.838487
 20
157.919909
 30
0.0
 10
18.032291
 20
157.919909
 30
0.0
  0
SPLINE
  5
128
100
AcDbEntity
  8
0
 62
7
100
AcDbSpline
 70
8
 71
3
 72
8
 73
4
 74
0
 40
0
 40
0
 40
0
 40
0
 40
1
 40
1
 40
1
 40
1
 10
17.857446
 20
14.039943
 30
0.0
 10
18.368781
 20
11.755940
 30
0.0
 10
20.396121
 20
10.132287
 30
0.0
 10
22.736662
 20
10.132285
 30
0.0
  0
LWPOLYLINE
  5
129
100
AcDbEntity
  8
0
 62
7
100
AcDbPolyline
 90
3
 70
0
 10
15.732292
 20
77.619900
 30
0.0
 10
15.732292
 20
23.532293
 30
0.0
 10
17.857446
 20
14.039943
 30
0.0
  0
SPLINE
  5
12a
100
AcDbEntity
  8
0
 62
7
100
AcDbSpline
 70
8
 71
3
 72
8
 73
4
 74
0
 40
0
 40
0
 40
0
 40
0
 40
1
 40
1
 40
1
 40
1
 10
85.527920
 20
10.132285
 30
0.0
 10
87.868461
 20
10.132287
 30
0.0
 10
89.895801
 20
11.755940
 30
0.0
 10
90.407135
 20
14.039943
 30
0.0
  0
LWPOLYLINE
  5
12b
100
AcDbEntity
  8
0
 62
7
100
AcDbPolyline
 90
2
 70
0
 10
22.736662
 20
10.132285
 30
0.0
 10
85.527920
 20
10.132285
 30
0.0
  0
LWPOLYLINE
  5
12c
100
AcDbEntity
  8
0
 62
7
100
AcDbPolyline
 90
18
 70
0
 10
90.407135
 20
14.039943
 30
0.0
 10
92.532293
 20
23.532293
 30
0.0
 10
92.532293
 20
67.319909
 30
0.0
 10
98.826098
 20
67.319909
 30
0.0
 10
98.826098
 20
66.126109
 30
0.0
 10
103.826096
 20
47.726111
 30
0.0
 10
117.826097
 20
47.726111
 30
0.0
 10
122.826097
 20
66.126109
 30
0.0
 10
122.826097
 20
67.319909
 30
0.0
 10
206.913708
 20
67.319909
 30
0.0
 10
206.913708
 20
66.126109
 30
0.0
 10
211.913708
 20
47.726111
 30
0.0
 10
225.913707
 20
47.726111
 30
0.0
 10
230.913707
 20
66.126109
 30
0.0
 10
230.913707
 20
67.319909
 30
0.0
 10
311.807513
 20
67.319909
 30
0.0
 10
311.807513
 20
75.819913
 30
0.0
 10
314.307511
 20
75.819913
 30
0.0
  0
LWPOLYLINE
  5
12d
100
AcDbEntity
  8
0
 62
7
100
AcDbPolyline
 90
2
 70
0
 10
314.307511
 20
94.819907
 30
0.0
 10
311.807513
 20
94.819907
 30
0.0
  0
SPLINE
  5
12e
100
AcDbEntity
  8
0
 62
7
100
AcDbSpline
 70
8
 71
3
 72
8
 73
4
 74
0
 40
0
 40
0
 40
0
 40
0
 40
1
 40
1
 40
1
 40
1
 10
317.807512
 20
130.613719
 30
0.0
 10
317.807500
 20
132.270564
 30
0.0
 10
316.464358
 20
133.613697
 30
0.0
 10
314.807513
 20
133.613697
 30
0.0
  0
LWPOLYLINE
  5
12f
100
AcDbEntity
  8
0
 62
7
100
AcDbPolyline
 90
2
 70
0
 10
265.407513
 20
106.316820
 30
0.0
 10
311.807513
 20
106.316820
 30
0.0
  0
LWPOLYLINE
  5
130
100
AcDbEntity
  8
0
 62
7
100
AcDbPolyline
 90
3
 70
0
 10
314.807513
 20
133.613697
 30
0.0
 10
314.307511
 20
133.613697
 30
0.0
 10
314.307511
 20
132.213707
 30
0.0
  0
SPLINE
  5
131
100
AcDbEntity
  8
0
 62
7
100
AcDbSpline
 70
8
 71
3
 72
8
 73
4
 74
0
 40
0
 40
0
 40
0
 40
0
 40
1
 40
1
 40
1
 40
1
 10
95.132292
 20
243.907508
 30
0.0
 10
95.927942
 20
243.907509
 30
0.0
 10
96.691005
 20
244.223580
 30
0.0
 10
97.253614
 20
244.786190
 30
0.0
  0
SPLINE
  5
132
100
AcDbEntity
  8
0
 62
7
100
AcDbSpline
 70
8
 71
3
 72
8
 73
4
 74
0
 40
0
 40
0
 40
0
 40
0
 40
1
 40
1
 40
1
 40
1
 10
97.253614
 20
244.786190
 30
0.0
 10
97.816223
 20
245.348800
 30
0.0
 10
98.132293
 20
246.111863
 30
0.0
 10
98.132291
 20
246.907513
 30
0.0
  0
SPLINE
  5
133
100
AcDbEntity
  8
0
 62
7
100
AcDbSpline
 70
8
 71
3
 72
8
 73
4
 74
0
 40
0
 40
0
 40
0
 40
0
 40
1
 40
1
 40
1
 40
1
 10
98.132291
 20
257.707514
 30
0.0
 10
98.132293
 20
258.503164
 30
0.0
 10
97.816223
 20
259.266227
 30
0.0
 10
97.253614
 20
259.828837
 30
0.0
  0
SPLINE
  5
134
100
AcDbEntity
  8
0
 62
7
100
AcDbSpline
 70
8
 71
3
 72
8
 73
4
 74
0
 40
0
 40
0
 40
0
 40
0
 40
1
 40
1
 40
1
 40
1
 10
97.253614
 20
259.828837
 30
0.0
 10
96.691005
 20
260.391447
 30
0.0
 10
95.927942
 20
260.707518
 30
0.0
 10
95.132292
 20
260.707518
 30
0.0
  0
LWPOLYLINE
  5
135
100
AcDbEntity
  8
0
 62
7
100
AcDbPolyline
 90
3
 70
0
 10
94.632291
 20
245.307525
 30
0.0
 10
94.632291
 20
243.907508
 30
0.0
 10
95.132292
 20
243.907508
 30
0.0
  0
LWPOLYLINE
  5
136
100
AcDbEntity
  8
0
 62
7
100
AcDbPolyline
 90
3
 70
0
 10
95.132292
 20
260.707518
 30
0.0
 10
94.632291
 20
260.707518
 30
0.0
 10
94.632291
 20
259.307528
 30
0.0
  0
SPLINE
  5
137
100
AcDbEntity
  8
0
 62
7
100
AcDbSpline
 70
8
 71
3
 72
8
 73
4
 74
0
 40
0
 40
0
 40
0
 40
0
 40
1
 40
1
 40
1
 40
1
 10
13.132292
 20
260.707518
 30
0.0
 10
12.336642
 20
260.707518
 30
0.0
 10
11.573580
 20
260.391447
 30
0.0
 10
11.010971
 20
259.828837
 30
0.0
  0
SPLINE
  5
138
100
AcDbEntity
  8
0
 62
7
100
AcDbSpline
 70
8
 71
3
 72
8
 73
4
 74
0
 40
0
 40
0
 40
0
 40
0
 40
1
 40
1
 40
1
 40
1
 10
11.010971
 20
259.828837
 30
0.0
 10
10.448362
 20
259.266227
 30
0.0
 10
10.132292
 20
258.503164
 30
0.0
 10
10.132293
 20
257.707514
 30
0.0
  0
SPLINE
  5
139
100
AcDbEntity
  8
0
 62
7
100
AcDbSpline
 70
8
 71
3
 72
8
 73
4
 74
0
 40
0
 40
0
 40
0
 40
0
 40
1
 40
1
 40
1
 40
1
 10
10.132293
 20
246.907513
 30
0.0
 10
10.132292
 20
246.111863
 30
0.0
 10
10.448362
 20
245.348800
 30
0.0
 10
11.010971
 20
244.786190
 30
0.0
  0
SPLINE
  5
13a
100
AcDbEntity
  8
0
 62
7
100
AcDbSpline
 70
8
 71
3
 72
8
 73
4
 74
0
 40
0
 40
0
 40
0
 40
0
 40
1
 40
1
 40
1
 40
1
 10
11.010971
 20
244.786190
 30
0.0
 10
11.573580
 20
244.223580
 30
0.0
 10
12.336642
 20
243.907509
 30
0.0
 10
13.132292
 20
243.907508
 30
0.0
  0
LWPOLYLINE
  5
13b
100
AcDbEntity
  8
0
 62
7
100
AcDbPolyline
 90
3
 70
0
 10
13.632291
 20
259.307528
 30
0.0
 10
13.632291
 20
260.707518
 30
0.0
 10
13.132292
 20
260.707518
 30
0.0
  0
LWPOLYLINE
  5
13c
100
AcDbEntity
  8
0
 62
7
100
AcDbPolyline
 90
3
 70
0
 10
13.132292
 20
243.907508
 30
0.0
 10
13.632291
 20
243.907508
 30
0.0
 10
13.632291
 20
245.307525
 30
0.0
  0
SPLINE
  5
13d
100
AcDbEntity
  8
0
 62
7
100
AcDbSpline
 70
8
 71
3
 72
8
 73
4
 74
0
 40
0
 40
0
 40
0
 40
0
 40
1
 40
1
 40
1
 40
1
 10
314.807513
 20
74.419897
 30
0.0
 10
315.603163
 20
74.419897
 30
0.0
 10
316.366225
 20
74.735968
 30
0.0
 10
316.928834
 20
75.298578
 30
0.0
  0
SPLINE
  5
13e
100
AcDbEntity
  8
0
 62
7
100
AcDbSpline
 70
8
 71
3
 72
8
 73
4
 74
0
 40
0
 40
0
 40
0
 40
0
 40
1
 40
1
 40
1
 40
1
 10
316.928834
 20
75.298578
 30
0.0
 10
317.491443
 20
75.861188
 30
0.0
 10
317.807513
 20
76.624251
 30
0.0
 10
317.807512
 20
77.419901
 30
0.0
  0
SPLINE
  5
13f
100
AcDbEntity
  8
0
 62
7
100
AcDbSpline
 70
8
 71
3
 72
8
 73
4
 74
0
 40
0
 40
0
 40
0
 40
0
 40
1
 40
1
 40
1
 40
1
 10
317.807512
 20
93.219892
 30
0.0
 10
317.807513
 20
94.015542
 30
0.0
 10
317.491443
 20
94.778605
 30
0.0
 10
316.928834
 20
95.341215
 30
0.0
  0
SPLINE
  5
140
100
AcDbEntity
  8
0
 62
7
100
AcDbSpline
 70
8
 71
3
 72
8
 73
4
 74
0
 40
0
 40
0
 40
0
 40
0
 40
1
 40
1
 40
1
 40
1
 10
316.928834
 20
95.341215
 30
0.0
 10
316.366225
 20
95.903825
 30
0.0
 10
315.603163
 20
96.219896
 30
0.0
 10
314.807513
 20
96.219896
 30
0.0
  0
LWPOLYLINE
  5
141
100
AcDbEntity
  8
0
 62
7
100
AcDbPolyline
 90
3
 70
0
 10
314.307511
 20
75.819913
 30
0.0
 10
314.307511
 20
74.419897
 30
0.0
 10
314.807513
 20
74.419897
 30
0.0
  0
LWPOLYLINE
  5
142
100
AcDbEntity
  8
0
 62
7
100
AcDbPolyline
 90
3
 70
0
 10
314.807513
 20
96.219896
 30
0.0
 10
314.307511
 20
96.219896
 30
0.0
 10
314.307511
 20
94.819907
 30
0.0
  0
SPLINE
  5
143
100
AcDbEntity
  8
0
 62
7
100
AcDbSpline
 70
8
 71
3
 72
8
 73
4
 74
0
 40
0
 40
0
 40
0
 40
0
 40
1
 40
1
 40
1
 40
1
 10
314.807513
 20
111.813697
 30
0.0
 10
315.603163
 20
111.813697
 30
0.0
 10
316.366225
 20
112.129769
 30
0.0
 10
316.928834
 20
112.692379
 30
0.0
  0
SPLINE
  5
144
100
AcDbEntity
  8
0
 62
7
100
AcDbSpline
 70
8
 71
3
 72
8
 73
4
 74
0
 40
0
 40
0
 40
0
 40
0
 40
1
 40
1
 40
1
 40
1
 10
316.928834
 20
112.692379
 30
0.0
 10
317.491443
 20
113.254989
 30
0.0
 10
317.807513
 20
114.018052
 30
0.0
 10
317.807512
 20
114.813702
 30
0.0
  0
LWPOLYLINE
  5
145
100
AcDbEntity
  8
0
 62
7
100
AcDbPolyline
 90
3
 70
0
 10
314.307511
 20
113.213713
 30
0.0
 10
314.307511
 20
111.813697
 30
0.0
 10
314.807513
 20
111.813697
 30
0.0
  0
LWPOLYLINE
  5
146
100
AcDbEntity
  8
0
 62
7
100
AcDbPolyline
 90
2
 70
0
 10
317.807512
 20
114.813702
 30
0.0
 10
317.807512
 20
130.613719
 30
0.0
  0
LWPOLYLINE
  5
147
100
AcDbEntity
  8
0
 62
7
100
AcDbPolyline
 90
4
 70
1
 10
104.226095
 20
200.319918
 30
0.0
 10
104.226095
 20
192.319897
 30
0.0
 10
122.226096
 20
192.319897
 30
0.0
 10
122.226096
 20
200.319918
 30
0.0
  0
LWPOLYLINE
  5
148
100
AcDbEntity
  8
0
 62
7
100
AcDbPolyline
 90
4
 70
1
 10
225.413708
 20
192.319897
 30
0.0
 10
225.413708
 20
200.319918
 30
0.0
 10
207.413707
 20
200.319918
 30
0.0
 10
207.413707
 20
192.319897
 30
0.0
  0
LWPOLYLINE
  5
149
100
AcDbEntity
  8
0
 62
7
100
AcDbPolyline
 90
2
 70
0
 10
125.822998
 20
67.319909
 30
0.0
 10
125.822998
 20
227.319906
 30
0.0
  0
LWPOLYLINE
  5
14a
100
AcDbEntity
  8
0
 62
7
100
AcDbPolyline
 90
2
 70
0
 10
93.129195
 20
67.319909
 30
0.0
 10
93.129195
 20
227.319906
 30
0.0
  0
LWPOLYLINE
  5
14b
100
AcDbEntity
  8
0
 62
7
100
AcDbPolyline
 90
2
 70
0
 10
203.816805
 20
227.319906
 30
0.0
 10
203.816805
 20
67.319909
 30
0.0
  0
LWPOLYLINE
  5
14c
100
AcDbEntity
  8
0
 62
7
100
AcDbPolyline
 90
2
 70
0
 10
234.810610
 20
191.319904
 30
0.0
 10
234.810610
 20
67.319909
 30
0.0
  0
LWPOLYLINE
  5
14d
100
AcDbEntity
  8
0
 62
7
100
AcDbPolyline
 90
2
 70
0
 10
206.913708
 20
66.723009
 30
0.0
 10
230.913707
 20
66.723009
 30
0.0
  0
LWPOLYLINE
  5
14e
100
AcDbEntity
  8
0
 62
7
100
AcDbPolyline
 90
2
 70
0
 10
122.826097
 20
66.723009
 30
0.0
 10
98.826098
 20
66.723009
 30
0.0
  0
LWPOLYLINE
  5
14f
100
AcDbEntity
  8
0
 62
7
100
AcDbPolyline
 90
2
 70
0
 10
15.732292
 20
34.129197
 30
0.0
 10
92.532293
 20
34.129197
 30
0.0
  0
LWPOLYLINE
  5
150
100
AcDbEntity
  8
0
 62
7
100
AcDbPolyline
 90
2
 70
0
 10
15.732292
 20
65.122994
 30
0.0
 10
92.532293
 20
65.122994
 30
0.0
  0
LWPOLYLINE
  5
151
100
AcDbEntity
  8
0
 62
7
100
AcDbPolyline
 90
2
 70
0
 10
16.632290
 20
232.310609
 30
0.0
 10
91.632291
 20
232.310609
 30
0.0
  0
LWPOLYLINE
  5
152
100
AcDbEntity
  8
0
 62
7
100
AcDbPolyline
 90
2
 70
0
 10
91.632291
 20
228.316803
 30
0.0
 10
16.632290
 20
228.316803
 30
0.0
  0
LWPOLYLINE
  5
153
100
AcDbEntity
  8
0
 62
7
100
AcDbPolyline
 90
6
 70
1
 10
158.219902
 20
214.819905
 30
0.0
 10
158.219902
 20
203.819906
 30
0.0
 10
163.219903
 20
196.319894
 30
0.0
 10
200.219903
 20
196.319894
 30
0.0
 10
200.219903
 20
222.319916
 30
0.0
 10
163.219903
 20
222.319916
 30
0.0
  0
SPLINE
  5
154
100
AcDbEntity
  8
0
 62
7
100
AcDbSpline
 70
8
 71
3
 72
8
 73
4
 74
0
 40
0
 40
0
 40
0
 40
0
 40
1
 40
1
 40
1
 40
1
 10
14.338485
 20
188.119901
 30
0.0
 10
12.129347
 20
188.119901
 30
0.0
 10
10.338487
 20
186.329042
 30
0.0
 10
10.338485
 20
184.119904
 30
0.0
  0
LWPOLYLINE
  5
155
100
AcDbEntity
  8
0
 62
7
100
AcDbPolyline
 90
3
 70
0
 10
14.838487
 20
186.719911
 30
0.0
 10
14.838487
 20
188.119901
 30
0.0
 10
14.338485
 20
188.119901
 30
0.0
  0
SPLINE
  5
156
100
AcDbEntity
  8
0
 62
7
100
AcDbSpline
 70
8
 71
3
 72
8
 73
4
 74
0
 40
0
 40
0
 40
0
 40
0
 40
1
 40
1
 40
1
 40
1
 10
14.338485
 20
116.719892
 30
0.0
 10
12.129347
 20
116.719892
 30
0.0
 10
10.338487
 20
114.929033
 30
0.0
 10
10.338485
 20
112.719895
 30
0.0
  0
LWPOLYLINE
  5
157
100
AcDbEntity
  8
0
 62
7
100
AcDbPolyline
 90
2
 70
0
 10
18.032291
 20
116.719892
 30
0.0
 10
14.338485
 20
116.719892
 30
0.0
  0
SPLINE
  5
158
100
AcDbEntity
  8
0
 62
7
100
AcDbSpline
 70
8
 71
3
 72
8
 73
4
 74
0
 40
0
 40
0
 40
0
 40
0
 40
1
 40
1
 40
1
 40
1
 10
10.338485
 20
81.919908
 30
0.0
 10
10.338487
 20
79.710770
 30
0.0
 10
12.129347
 20
77.919911
 30
0.0
 10
14.338485
 20
77.919911
 30
0.0
  0
LWPOLYLINE
  5
159
100
AcDbEntity
  8
0
 62
7
100
AcDbPolyline
 90
2
 70
0
 10
10.338485
 20
112.719895
 30
0.0
 10
10.338485
 20
81.919908
 30
0.0
  0
LWPOLYLINE
  5
15a
100
AcDbEntity
  8
0
 62
7
100
AcDbPolyline
 90
3
 70
0
 10
15.732292
 20
187.019896
 30
0.0
 10
18.032291
 20
187.019896
 30
0.0
 10
18.032291
 20
186.719911
 30
0.0
  0
LWPOLYLINE
  5
15b
100
AcDbEntity
  8
0
 62
7
100
AcDbPolyline
 90
3
 70
0
 10
18.032291
 20
157.919909
 30
0.0
 10
18.032291
 20
157.619898
 30
0.0
 10
15.732292
 20
157.619898
 30
0.0
  0
LWPOLYLINE
  5
15c
100
AcDbEntity
  8
0
 62
7
100
AcDbPolyline
 90
3
 70
0
 10
15.732292
 20
117.019903
 30
0.0
 10
18.032291
 20
117.019903
 30
0.0
 10
18.032291
 20
116.719892
 30
0.0
  0
LWPOLYLINE
  5
15d
100
AcDbEntity
  8
0
 62
7
100
AcDbPolyline
 90
3
 70
0
 10
18.032291
 20
77.919911
 30
0.0
 10
18.032291
 20
77.619900
 30
0.0
 10
15.732292
 20
77.619900
 30
0.0
  0
LWPOLYLINE
  5
15e
100
AcDbEntity
  8
0
 62
7
100
AcDbPolyline
 90
2
 70
0
 10
17.335389
 20
157.919909
 30
0.0
 10
17.335389
 20
186.719911
 30
0.0
  0
LWPOLYLINE
  5
15f
100
AcDbEntity
  8
0
 62
7
100
AcDbPolyline
 90
2
 70
0
 10
17.335389
 20
77.919911
 30
0.0
 10
17.335389
 20
116.719892
 30
0.0
  0
ENDSEC
  0
SECTION
  2
OBJECTS
  0
DICTIONARY
  5
C
330
0
100
AcDbDictionary
  3
ACAD_GROUP
350
D
  3
ACAD_MLINESTYLE
350
17
  0
DICTIONARY
  5
D
330
C
100
AcDbDictionary
  0
DICTIONARY
  5
1A
330
C
100
AcDbDictionary
  0
DICTIONARY
  5
17
330
C
100
AcDbDictionary
  3
STANDARD
350
18
  0
DICTIONARY
  5
19
330
C
100
AcDbDictionary
  0
ENDSEC
  0
EOF
