<?xml version="1.0" encoding="UTF-8" standalone="no"?>
<svg
   xmlns:dc="http://purl.org/dc/elements/1.1/"
   xmlns:cc="http://creativecommons.org/ns#"
   xmlns:rdf="http://www.w3.org/1999/02/22-rdf-syntax-ns#"
   xmlns:svg="http://www.w3.org/2000/svg"
   xmlns="http://www.w3.org/2000/svg"
   xmlns:sodipodi="http://sodipodi.sourceforge.net/DTD/sodipodi-0.dtd"
   xmlns:inkscape="http://www.inkscape.org/namespaces/inkscape"
   width="304.63666mm"
   height="226.48399mm"
   id="svg2"
   version="1.1"
   inkscape:version="0.91 r13725"
   sodipodi:docname="Mykroscope.svg">
  <metadata
     id="metadata76">
    <rdf:RDF>
      <cc:Work
         rdf:about="">
        <dc:format>image/svg+xml</dc:format>
        <dc:type
           rdf:resource="http://purl.org/dc/dcmitype/StillImage" />
        <dc:title></dc:title>
      </cc:Work>
    </rdf:RDF>
  </metadata>
  <sodipodi:namedview
     pagecolor="#ffffff"
     bordercolor="#666666"
     borderopacity="1"
     objecttolerance="10"
     gridtolerance="10"
     guidetolerance="10"
     inkscape:pageopacity="0"
     inkscape:pageshadow="2"
     inkscape:window-width="1050"
     inkscape:window-height="829"
     id="namedview74"
     showgrid="false"
     inkscape:zoom="0.63429569"
     inkscape:cx="481.92586"
     inkscape:cy="414.29548"
     inkscape:window-x="0"
     inkscape:window-y="0"
     inkscape:window-maximized="0"
     inkscape:current-layer="g20"
     fit-margin-top="10"
     fit-margin-left="10"
     fit-margin-right="10"
     fit-margin-bottom="10"
     units="mm" />
  <desc
     id="desc4">/Users/Louis/Desktop/Mykroscope.dxf - scale = 1.000000, origin = (0.000000, 0.000000), auto = True</desc>
  <defs
     id="defs6">
    <marker
       id="DistanceX"
       orient="auto"
       refX="0"
       refY="0"
       style="overflow:visible">
      <path
         d="M 3,-3 -3,3 M 0,-5 0,5"
         style="stroke:#000000;stroke-width:0.5"
         id="path9"
         inkscape:connector-curvature="0" />
    </marker>
    <pattern
       height="8"
       id="Hatch"
       patternUnits="userSpaceOnUse"
       width="8"
       x="0"
       y="0">
      <path
         d="M8 4 l-4,4"
         linecap="square"
         stroke="#000000"
         stroke-width="0.25"
         id="path12" />
      <path
         d="M6 2 l-4,4"
         linecap="square"
         stroke="#000000"
         stroke-width="0.25"
         id="path14" />
      <path
         d="M4 0 l-4,4"
         linecap="square"
         stroke="#000000"
         stroke-width="0.25"
         id="path16" />
    </pattern>
    <symbol
       id="*MODEL_SPACE" />
    <symbol
       id="*PAPER_SPACE" />
  </defs>
  <g
     inkscape:groupmode="layer"
     inkscape:label="0"
     id="g20"
     transform="translate(149.29241,-137.97426)">
    <path
       d="m 179.32409,652.25379 0,70.86614 6.37795,0 0,-70.86614 -6.37795,0 z"
       style="fill:none;stroke:#000000"
       id="path22"
       inkscape:connector-curvature="0" />
    <path
       d="m 179.32409,251.50576 0,28.70078 53.14961,0 0,-28.70078 -53.14961,0 z"
       style="fill:none;stroke:#000000"
       id="path24"
       inkscape:connector-curvature="0" />
    <path
       d="m 179.32409,191.62387 0,28.70079 53.14961,0 0,-28.70079 -53.14961,0 z"
       style="fill:none;stroke:#000000"
       id="path26"
       inkscape:connector-curvature="0" />
    <path
       d="m 198.45795,617.52938 35.43307,0 0,-6.73228 -35.43307,0 0,6.73228 z"
       style="fill:none;stroke:#000000"
       id="path28"
       inkscape:connector-curvature="0" />
    <path
       d="m 301.74849,617.52938 178.937,0 0,-6.73228 -178.937,0 0,6.73228 z"
       style="fill:none;stroke:#000000"
       id="path30"
       inkscape:connector-curvature="0" />
    <path
       d="m 359.26489,283.74985 133.82218,0 0,-95.66929 -133.82218,0 -18.54003,27.81004 0,40.04921 18.54003,27.81004 z"
       style="fill:none;stroke:#000000;stroke-width:1;stroke-miterlimit:4;stroke-dasharray:1, 12;stroke-dashoffset:0"
       id="path32"
       inkscape:connector-curvature="0" />
    <path
       d="m -21.40739,235.91521 a 7.0866145,7.0866145 0 1 0 -14.173229,0 7.0866145,7.0866145 0 0 0 14.173229,0 z"
       style="fill:none;stroke:#000000"
       id="path34"
       inkscape:connector-curvature="0" />
    <path
       d="m 45.915444,235.91521 a 7.086614,7.086614 0 1 0 -14.173228,0 7.086614,7.086614 0 1 0 14.173228,0 z"
       style="fill:none;stroke:#000000"
       id="path36"
       inkscape:connector-curvature="0" />
    <path
       d="m 874.70751,740.83647 -276.20392,0 0,4.7866 -3.54331,64.84252 -51.73228,0 -3.54331,-64.84252 0,-4.7866 -295.16375,0 0,4.7866 -3.5433,64.84252 -51.73229,0 -3.54331,-64.84252 0,-4.7866 -11.16455,0 -0.99965,5.66929 -0.12495,4.7866 0,81.67636 -17.71654,0 0,0.70866 17.71654,0 -23.89175,59.72936 a 17.716535,17.716535 0 0 1 -16.44939,11.13678 l -186.261467,0 a 17.716535,17.716535 0 0 1 -16.44939,-11.13678 l -23.891745,-59.72936 17.716536,0 0,-0.70866 -17.716536,0 0,-81.67636 -0.84455,-4.7866 -6.756398,-5.66929 0,-71.92914 13.996063,0 0,-0.70866 -14.885023,0 0,4.96063 -0.70866,0 a 10.629921,10.629921 0 0 1 -10.62992,-10.62992 l 0,-94.96063 a 10.629921,10.629921 0 0 1 10.62992,-10.62992 l 0.70866,0 0,4.96063 14.885023,0 0,-0.70866 -13.996063,0 0,-136.77166 13.996063,0 0,-0.70866 -14.885023,0 0,4.96063 -0.70866,0 a 10.629921,10.629921 0 0 1 -10.62992,-10.62992 l 0,-94.97447 a 10.629921,10.629921 0 0 1 10.62992,-10.62992 l 0.70866,0 0,4.96063 14.885023,0 0,-0.70866 -9.744094,0 0,-142.78144 707.785001,0 0,124.01575 39.511,0 0,322.26378 0.70867,0 0,-78.31022 177.16535,0 0,4.6063 46.41732,0 0,18.95669 8.14961,0 0,-4.96063 0.70866,0 a 10.629921,10.629921 0 0 1 10.62992,10.62992 l 0,22.32284 a 10.629921,10.629921 0 0 1 -10.62992,10.62992 l -0.70866,0 0,-4.96063 -8.14961,0 0,54.03857 8.14961,0 0,-4.96063 0.70866,0 a 10.629921,10.629921 0 0 1 10.62992,10.62992 l 0,57.7559 a 10.629921,10.629921 0 0 1 -10.62992,10.62992 l -0.70866,0 0,-4.96063 -8.14961,0 0,18.60237 z"
       style="fill:none;stroke:#000000"
       id="path38"
       inkscape:connector-curvature="0" />
    <path
       d="m 603.29019,560.1278 0,109.84252 8.85827,0 0,-109.84252 -8.85827,0 z"
       style="fill:none;stroke:#000000"
       id="path40"
       inkscape:connector-curvature="0" />
    <path
       d="m 604.88154,220.32466 0,-28.70079 -53.1496,0 0,28.70079 53.1496,0 z"
       style="fill:none;stroke:#000000"
       id="path42"
       inkscape:connector-curvature="0" />
    <path
       d="m 604.88154,251.50576 -53.1496,0 0,28.70078 53.1496,0 0,-28.70078 z"
       style="fill:none;stroke:#000000"
       id="path44"
       inkscape:connector-curvature="0" />
    <path
       d="m 583.26737,409.53725 -35.43307,0 0,47.83465 35.43307,0 0,-47.83465 z"
       style="fill:none;stroke:#000000"
       id="path46"
       inkscape:connector-curvature="0" />
    <path
       d="m 603.29019,315.63962 0,109.84252 8.85827,0 0,-109.84252 -8.85827,0 z"
       style="fill:none;stroke:#000000"
       id="path48"
       inkscape:connector-curvature="0" />
    <path
       d="m 651.12484,615.13608 223.58267,0"
       style="fill:none;stroke:#000000;stroke-width:1;stroke-miterlimit:4;stroke-dasharray:1, 12;stroke-dashoffset:0"
       id="path50"
       inkscape:connector-curvature="0" />
    <path
       d="m 600.89689,297.92308 0,442.91339"
       style="fill:none;stroke:#000000;stroke-width:1;stroke-miterlimit:4;stroke-dasharray:1, 12;stroke-dashoffset:0"
       id="path52"
       inkscape:connector-curvature="0" />
    <path
       d="m 598.50359,743.22977 -58.8189,0"
       style="fill:none;stroke:#000000;stroke-width:1;stroke-miterlimit:4;stroke-dasharray:1, 12;stroke-dashoffset:0"
       id="path54"
       inkscape:connector-curvature="0" />
    <path
       d="m 530.20478,173.90733 0,566.92914"
       style="fill:none;stroke:#000000;stroke-width:1;stroke-miterlimit:4;stroke-dasharray:1, 12;stroke-dashoffset:0"
       id="path56"
       inkscape:connector-curvature="0" />
    <path
       d="m 244.52094,743.22977 -58.8189,0"
       style="fill:none;stroke:#000000;stroke-width:1;stroke-miterlimit:4;stroke-dasharray:1, 12;stroke-dashoffset:0"
       id="path58"
       inkscape:connector-curvature="0" />
    <path
       d="m 254.00086,740.83647 0,-566.92914"
       style="fill:none;stroke:#000000;stroke-width:1;stroke-miterlimit:4;stroke-dasharray:1, 12;stroke-dashoffset:0"
       id="path60"
       inkscape:connector-curvature="0" />
    <path
       d="m 176.93079,740.83647 0,-566.92914"
       style="fill:none;stroke:#000000;stroke-width:1;stroke-miterlimit:4;stroke-dasharray:1, 12;stroke-dashoffset:0"
       id="path62"
       inkscape:connector-curvature="0" />
    <path
       d="m 173.47536,748.89906 -267.428487,0"
       style="fill:none;stroke:#000000;stroke-width:1;stroke-miterlimit:4;stroke-dasharray:1, 12;stroke-dashoffset:0"
       id="path64"
       inkscape:connector-curvature="0" />
    <path
       d="m 173.41289,819.59117 -266.943742,0"
       style="fill:none;stroke:#000000;stroke-width:1;stroke-miterlimit:4;stroke-dasharray:1, 12;stroke-dashoffset:0"
       id="path66"
       inkscape:connector-curvature="0" />
    <path
       d="m -92.186517,668.19867 0,-106.29921"
       style="fill:none;stroke:#000000;stroke-width:1;stroke-miterlimit:4;stroke-dasharray:1, 12;stroke-dashoffset:0"
       id="path68"
       inkscape:connector-curvature="0" />
    <path
       d="m -92.186517,423.71048 0,-106.31305"
       style="fill:none;stroke:#000000;stroke-width:1;stroke-miterlimit:4;stroke-dasharray:1, 12;stroke-dashoffset:0"
       id="path70"
       inkscape:connector-curvature="0" />
  </g>
</svg>
