<?xml version="1.0" encoding="UTF-8" standalone="no"?>
<svg
   xmlns:dc="http://purl.org/dc/elements/1.1/"
   xmlns:cc="http://creativecommons.org/ns#"
   xmlns:rdf="http://www.w3.org/1999/02/22-rdf-syntax-ns#"
   xmlns:svg="http://www.w3.org/2000/svg"
   xmlns="http://www.w3.org/2000/svg"
   xmlns:sodipodi="http://sodipodi.sourceforge.net/DTD/sodipodi-0.dtd"
   xmlns:inkscape="http://www.inkscape.org/namespaces/inkscape"
   width="793.700787402"
   height="1122.51968504"
   version="1.1"
   id="svg22"
   sodipodi:docname="SlideHolder.svg"
   inkscape:version="0.92.2 5c3e80d, 2017-08-06">
  <metadata
     id="metadata26">
    <rdf:RDF>
      <cc:Work
         rdf:about="">
        <dc:format>image/svg+xml</dc:format>
        <dc:type
           rdf:resource="http://purl.org/dc/dcmitype/StillImage" />
        <dc:title></dc:title>
      </cc:Work>
    </rdf:RDF>
  </metadata>
  <sodipodi:namedview
     pagecolor="#ffffff"
     bordercolor="#666666"
     borderopacity="1"
     objecttolerance="10"
     gridtolerance="10"
     guidetolerance="10"
     inkscape:pageopacity="0"
     inkscape:pageshadow="2"
     inkscape:window-width="1615"
     inkscape:window-height="1003"
     id="namedview24"
     showgrid="false"
     inkscape:zoom="0.21024131"
     inkscape:cx="396.8504"
     inkscape:cy="561.25983"
     inkscape:window-x="0"
     inkscape:window-y="0"
     inkscape:window-maximized="0"
     inkscape:current-layer="g20" />
  <desc
     id="desc2">/Users/louisooi/Desktop/SlideHolder.dxf - scale = 1.000000, origin = (0.000000, 0.000000), method = manual</desc>
  <defs
     id="defs16">
    <marker
       id="DistanceX"
       orient="auto"
       refX="0.0"
       refY="0.0"
       style="overflow:visible">
      <path
         d="M 3,-3 L -3,3 M 0,-5 L  0,5"
         style="stroke:#000000; stroke-width:0.5"
         id="path4" />
    </marker>
    <pattern
       height="8"
       id="Hatch"
       patternUnits="userSpaceOnUse"
       width="8"
       x="0"
       y="0">
      <path
         d="M8 4 l-4,4"
         linecap="square"
         stroke="#000000"
         stroke-width="0.25"
         id="path7" />
      <path
         d="M6 2 l-4,4"
         linecap="square"
         stroke="#000000"
         stroke-width="0.25"
         id="path9" />
      <path
         d="M4 0 l-4,4"
         linecap="square"
         stroke="#000000"
         stroke-width="0.25"
         id="path11" />
    </pattern>
    <symbol
       id="*MODEL_SPACE" />
    <symbol
       id="*PAPER_SPACE" />
  </defs>
  <g
     inkscape:groupmode="layer"
     inkscape:label="0"
     id="g20">
    <path
       d="m 171.79233,632.22209 a 3.779528,3.779528 0 0 1 -3.77953,-3.77953 V 605.7654 a 3.779528,3.779528 0 0 1 3.77953,-3.77953 h 86.92913 a 3.779528,3.779528 0 0 0 3.77953,-3.77953 v -45.35433 a 3.779528,3.779528 0 0 0 -3.77953,-3.77953 h -86.92913 a 3.779528,3.779528 0 0 1 -3.77953,-3.77952 v -22.67717 a 3.779528,3.779528 0 0 1 3.77953,-3.77953 h 445.98425 a 3.779528,3.779528 0 0 1 3.77953,3.77953 v 22.67717 a 3.779528,3.779528 0 0 1 -3.77953,3.77952 h -86.92913 a 3.779528,3.779528 0 0 0 -3.77953,3.77953 v 45.35433 a 3.779528,3.779528 0 0 0 3.77953,3.77953 h 86.92913 a 3.779528,3.779528 0 0 1 3.77953,3.77953 v 22.67716 a 3.779528,3.779528 0 0 1 -3.77953,3.77953 z"
       style="fill:none;stroke:#000000"
       id="path18"
       inkscape:connector-curvature="0" />
  </g>
</svg>
